ISO-10303-21;
HEADER;
FILE_DESCRIPTION(('FreeCAD Model'),'2;1');
FILE_NAME('Open CASCADE Shape Model','2026-05-12T11:08:36',('Author'),(
    ''),'Open CASCADE STEP processor 7.8','FreeCAD','Unknown');
FILE_SCHEMA(('AUTOMOTIVE_DESIGN { 1 0 10303 214 1 1 1 1 }'));
ENDSEC;
DATA;
#1 = APPLICATION_PROTOCOL_DEFINITION('international standard',
  'automotive_design',2000,#2);
#2 = APPLICATION_CONTEXT(
  'core data for automotive mechanical design processes');
#3 = SHAPE_DEFINITION_REPRESENTATION(#4,#10);
#4 = PRODUCT_DEFINITION_SHAPE('','',#5);
#5 = PRODUCT_DEFINITION('design','',#6,#9);
#6 = PRODUCT_DEFINITION_FORMATION('','',#7);
#7 = PRODUCT('Body','Body','',(#8));
#8 = PRODUCT_CONTEXT('',#2,'mechanical');
#9 = PRODUCT_DEFINITION_CONTEXT('part definition',#2,'design');
#10 = ADVANCED_BREP_SHAPE_REPRESENTATION('',(#11,#15),#1896);
#11 = AXIS2_PLACEMENT_3D('',#12,#13,#14);
#12 = CARTESIAN_POINT('',(0.,0.,0.));
#13 = DIRECTION('',(0.,0.,1.));
#14 = DIRECTION('',(1.,0.,-0.));
#15 = MANIFOLD_SOLID_BREP('',#16);
#16 = CLOSED_SHELL('',(#17,#73,#104,#128,#152,#250,#348,#713,#732,#756,
    #791,#825,#842,#866,#900,#917,#941,#975,#992,#1016,#1050,#1067,#1107
    ,#1131,#1158,#1192,#1216,#1249,#1273,#1291,#1315,#1362,#1386,#1410,
    #1427,#1444,#1469,#1493,#1526,#1550,#1577,#1611,#1635,#1668,#1692,
    #1710,#1735,#1752,#1764,#1781,#1794,#1811,#1824,#1836,#1854,#1866,
    #1883));
#17 = ADVANCED_FACE('',(#18),#68,.T.);
#18 = FACE_BOUND('',#19,.T.);
#19 = EDGE_LOOP('',(#20,#30,#38,#46,#54,#62));
#20 = ORIENTED_EDGE('',*,*,#21,.F.);
#21 = EDGE_CURVE('',#22,#24,#26,.T.);
#22 = VERTEX_POINT('',#23);
#23 = CARTESIAN_POINT('',(-5.,-200.,20.));
#24 = VERTEX_POINT('',#25);
#25 = CARTESIAN_POINT('',(-165.,-200.,20.));
#26 = LINE('',#27,#28);
#27 = CARTESIAN_POINT('',(0.,-200.,20.));
#28 = VECTOR('',#29,1.);
#29 = DIRECTION('',(-1.,0.,0.));
#30 = ORIENTED_EDGE('',*,*,#31,.F.);
#31 = EDGE_CURVE('',#32,#22,#34,.T.);
#32 = VERTEX_POINT('',#33);
#33 = CARTESIAN_POINT('',(4.440892098501E-16,-195.,25.));
#34 = LINE('',#35,#36);
#35 = CARTESIAN_POINT('',(-5.333333333333,-200.3333333333,
    19.666666666667));
#36 = VECTOR('',#37,1.);
#37 = DIRECTION('',(-0.57735026919,-0.57735026919,-0.57735026919));
#38 = ORIENTED_EDGE('',*,*,#39,.F.);
#39 = EDGE_CURVE('',#40,#32,#42,.T.);
#40 = VERTEX_POINT('',#41);
#41 = CARTESIAN_POINT('',(0.,-192.,28.));
#42 = LINE('',#43,#44);
#43 = CARTESIAN_POINT('',(0.,-153.,67.));
#44 = VECTOR('',#45,1.);
#45 = DIRECTION('',(0.,-0.707106781187,-0.707106781187));
#46 = ORIENTED_EDGE('',*,*,#47,.T.);
#47 = EDGE_CURVE('',#40,#48,#50,.T.);
#48 = VERTEX_POINT('',#49);
#49 = CARTESIAN_POINT('',(-170.,-192.,28.));
#50 = LINE('',#51,#52);
#51 = CARTESIAN_POINT('',(0.,-192.,28.));
#52 = VECTOR('',#53,1.);
#53 = DIRECTION('',(-1.,0.,0.));
#54 = ORIENTED_EDGE('',*,*,#55,.T.);
#55 = EDGE_CURVE('',#48,#56,#58,.T.);
#56 = VERTEX_POINT('',#57);
#57 = CARTESIAN_POINT('',(-170.,-195.,25.));
#58 = LINE('',#59,#60);
#59 = CARTESIAN_POINT('',(-170.,-203.,17.));
#60 = VECTOR('',#61,1.);
#61 = DIRECTION('',(-0.,-0.707106781187,-0.707106781187));
#62 = ORIENTED_EDGE('',*,*,#63,.F.);
#63 = EDGE_CURVE('',#24,#56,#64,.T.);
#64 = LINE('',#65,#66);
#65 = CARTESIAN_POINT('',(-136.3333333333,-228.6666666666,
    -8.666666666667));
#66 = VECTOR('',#67,1.);
#67 = DIRECTION('',(-0.57735026919,0.57735026919,0.57735026919));
#68 = PLANE('',#69);
#69 = AXIS2_PLACEMENT_3D('',#70,#71,#72);
#70 = CARTESIAN_POINT('',(0.,-196.,24.));
#71 = DIRECTION('',(0.,-0.707106781187,0.707106781187));
#72 = DIRECTION('',(-1.,0.,0.));
#73 = ADVANCED_FACE('',(#74),#99,.T.);
#74 = FACE_BOUND('',#75,.T.);
#75 = EDGE_LOOP('',(#76,#77,#85,#93));
#76 = ORIENTED_EDGE('',*,*,#21,.T.);
#77 = ORIENTED_EDGE('',*,*,#78,.F.);
#78 = EDGE_CURVE('',#79,#24,#81,.T.);
#79 = VERTEX_POINT('',#80);
#80 = CARTESIAN_POINT('',(-165.,-200.,0.));
#81 = LINE('',#82,#83);
#82 = CARTESIAN_POINT('',(-165.,-200.,0.));
#83 = VECTOR('',#84,1.);
#84 = DIRECTION('',(0.,0.,1.));
#85 = ORIENTED_EDGE('',*,*,#86,.F.);
#86 = EDGE_CURVE('',#87,#79,#89,.T.);
#87 = VERTEX_POINT('',#88);
#88 = CARTESIAN_POINT('',(-5.,-200.,0.));
#89 = LINE('',#90,#91);
#90 = CARTESIAN_POINT('',(0.,-200.,0.));
#91 = VECTOR('',#92,1.);
#92 = DIRECTION('',(-1.,0.,0.));
#93 = ORIENTED_EDGE('',*,*,#94,.T.);
#94 = EDGE_CURVE('',#87,#22,#95,.T.);
#95 = LINE('',#96,#97);
#96 = CARTESIAN_POINT('',(-5.,-200.,0.));
#97 = VECTOR('',#98,1.);
#98 = DIRECTION('',(0.,0.,1.));
#99 = PLANE('',#100);
#100 = AXIS2_PLACEMENT_3D('',#101,#102,#103);
#101 = CARTESIAN_POINT('',(0.,-200.,0.));
#102 = DIRECTION('',(0.,-1.,0.));
#103 = DIRECTION('',(-1.,0.,0.));
#104 = ADVANCED_FACE('',(#105),#123,.T.);
#105 = FACE_BOUND('',#106,.T.);
#106 = EDGE_LOOP('',(#107,#115,#116,#117));
#107 = ORIENTED_EDGE('',*,*,#108,.F.);
#108 = EDGE_CURVE('',#79,#109,#111,.T.);
#109 = VERTEX_POINT('',#110);
#110 = CARTESIAN_POINT('',(-170.,-195.,0.));
#111 = LINE('',#112,#113);
#112 = CARTESIAN_POINT('',(-171.25,-193.75,0.));
#113 = VECTOR('',#114,1.);
#114 = DIRECTION('',(-0.707106781187,0.707106781187,0.));
#115 = ORIENTED_EDGE('',*,*,#78,.T.);
#116 = ORIENTED_EDGE('',*,*,#63,.T.);
#117 = ORIENTED_EDGE('',*,*,#118,.F.);
#118 = EDGE_CURVE('',#109,#56,#119,.T.);
#119 = LINE('',#120,#121);
#120 = CARTESIAN_POINT('',(-170.,-195.,0.));
#121 = VECTOR('',#122,1.);
#122 = DIRECTION('',(0.,0.,1.));
#123 = PLANE('',#124);
#124 = AXIS2_PLACEMENT_3D('',#125,#126,#127);
#125 = CARTESIAN_POINT('',(-167.5,-197.5,0.));
#126 = DIRECTION('',(-0.707106781187,-0.707106781187,0.));
#127 = DIRECTION('',(0.,0.,1.));
#128 = ADVANCED_FACE('',(#129),#147,.T.);
#129 = FACE_BOUND('',#130,.T.);
#130 = EDGE_LOOP('',(#131,#139,#145,#146));
#131 = ORIENTED_EDGE('',*,*,#132,.F.);
#132 = EDGE_CURVE('',#133,#87,#135,.T.);
#133 = VERTEX_POINT('',#134);
#134 = CARTESIAN_POINT('',(4.440892098501E-16,-195.,0.));
#135 = LINE('',#136,#137);
#136 = CARTESIAN_POINT('',(1.25,-193.75,0.));
#137 = VECTOR('',#138,1.);
#138 = DIRECTION('',(-0.707106781187,-0.707106781187,0.));
#139 = ORIENTED_EDGE('',*,*,#140,.T.);
#140 = EDGE_CURVE('',#133,#32,#141,.T.);
#141 = LINE('',#142,#143);
#142 = CARTESIAN_POINT('',(0.,-195.,0.));
#143 = VECTOR('',#144,1.);
#144 = DIRECTION('',(0.,0.,1.));
#145 = ORIENTED_EDGE('',*,*,#31,.T.);
#146 = ORIENTED_EDGE('',*,*,#94,.F.);
#147 = PLANE('',#148);
#148 = AXIS2_PLACEMENT_3D('',#149,#150,#151);
#149 = CARTESIAN_POINT('',(-2.5,-197.5,0.));
#150 = DIRECTION('',(0.707106781187,-0.707106781187,0.));
#151 = DIRECTION('',(0.,0.,1.));
#152 = ADVANCED_FACE('',(#153),#245,.T.);
#153 = FACE_BOUND('',#154,.T.);
#154 = EDGE_LOOP('',(#155,#156,#164,#172,#181,#189,#197,#205,#214,#222,
    #230,#238,#244));
#155 = ORIENTED_EDGE('',*,*,#55,.F.);
#156 = ORIENTED_EDGE('',*,*,#157,.T.);
#157 = EDGE_CURVE('',#48,#158,#160,.T.);
#158 = VERTEX_POINT('',#159);
#159 = CARTESIAN_POINT('',(-170.,-164.9999954966,28.));
#160 = LINE('',#161,#162);
#161 = CARTESIAN_POINT('',(-170.,-200.,28.));
#162 = VECTOR('',#163,1.);
#163 = DIRECTION('',(0.,1.,0.));
#164 = ORIENTED_EDGE('',*,*,#165,.F.);
#165 = EDGE_CURVE('',#166,#158,#168,.T.);
#166 = VERTEX_POINT('',#167);
#167 = CARTESIAN_POINT('',(-170.,-164.9999999999,15.000003464102));
#168 = LINE('',#169,#170);
#169 = CARTESIAN_POINT('',(-170.,-164.9999999999,15.000003464102));
#170 = VECTOR('',#171,1.);
#171 = DIRECTION('',(0.,3.464102064754E-07,1.));
#172 = ORIENTED_EDGE('',*,*,#173,.F.);
#173 = EDGE_CURVE('',#174,#166,#176,.T.);
#174 = VERTEX_POINT('',#175);
#175 = CARTESIAN_POINT('',(-170.,-145.,15.));
#176 = CIRCLE('',#177,10.);
#177 = AXIS2_PLACEMENT_3D('',#178,#179,#180);
#178 = CARTESIAN_POINT('',(-170.,-155.,15.));
#179 = DIRECTION('',(-1.,0.,0.));
#180 = DIRECTION('',(0.,-1.,0.));
#181 = ORIENTED_EDGE('',*,*,#182,.T.);
#182 = EDGE_CURVE('',#174,#183,#185,.T.);
#183 = VERTEX_POINT('',#184);
#184 = CARTESIAN_POINT('',(-170.,-145.,28.));
#185 = LINE('',#186,#187);
#186 = CARTESIAN_POINT('',(-170.,-145.,15.));
#187 = VECTOR('',#188,1.);
#188 = DIRECTION('',(0.,0.,1.));
#189 = ORIENTED_EDGE('',*,*,#190,.T.);
#190 = EDGE_CURVE('',#183,#191,#193,.T.);
#191 = VERTEX_POINT('',#192);
#192 = CARTESIAN_POINT('',(-170.,-35.,28.));
#193 = LINE('',#194,#195);
#194 = CARTESIAN_POINT('',(-170.,-200.,28.));
#195 = VECTOR('',#196,1.);
#196 = DIRECTION('',(0.,1.,0.));
#197 = ORIENTED_EDGE('',*,*,#198,.F.);
#198 = EDGE_CURVE('',#199,#191,#201,.T.);
#199 = VERTEX_POINT('',#200);
#200 = CARTESIAN_POINT('',(-170.,-35.,15.));
#201 = LINE('',#202,#203);
#202 = CARTESIAN_POINT('',(-170.,-35.,15.));
#203 = VECTOR('',#204,1.);
#204 = DIRECTION('',(0.,0.,1.));
#205 = ORIENTED_EDGE('',*,*,#206,.F.);
#206 = EDGE_CURVE('',#207,#199,#209,.T.);
#207 = VERTEX_POINT('',#208);
#208 = CARTESIAN_POINT('',(-170.,-15.,15.000003464102));
#209 = CIRCLE('',#210,10.);
#210 = AXIS2_PLACEMENT_3D('',#211,#212,#213);
#211 = CARTESIAN_POINT('',(-170.,-25.,15.));
#212 = DIRECTION('',(-1.,0.,0.));
#213 = DIRECTION('',(0.,-1.,0.));
#214 = ORIENTED_EDGE('',*,*,#215,.T.);
#215 = EDGE_CURVE('',#207,#216,#218,.T.);
#216 = VERTEX_POINT('',#217);
#217 = CARTESIAN_POINT('',(-170.,-15.00000450333,28.));
#218 = LINE('',#219,#220);
#219 = CARTESIAN_POINT('',(-170.,-15.,15.000003464102));
#220 = VECTOR('',#221,1.);
#221 = DIRECTION('',(0.,-3.464102062385E-07,1.));
#222 = ORIENTED_EDGE('',*,*,#223,.T.);
#223 = EDGE_CURVE('',#216,#224,#226,.T.);
#224 = VERTEX_POINT('',#225);
#225 = CARTESIAN_POINT('',(-170.,0.,28.));
#226 = LINE('',#227,#228);
#227 = CARTESIAN_POINT('',(-170.,-200.,28.));
#228 = VECTOR('',#229,1.);
#229 = DIRECTION('',(0.,1.,0.));
#230 = ORIENTED_EDGE('',*,*,#231,.F.);
#231 = EDGE_CURVE('',#232,#224,#234,.T.);
#232 = VERTEX_POINT('',#233);
#233 = CARTESIAN_POINT('',(-170.,0.,0.));
#234 = LINE('',#235,#236);
#235 = CARTESIAN_POINT('',(-170.,0.,0.));
#236 = VECTOR('',#237,1.);
#237 = DIRECTION('',(0.,0.,1.));
#238 = ORIENTED_EDGE('',*,*,#239,.F.);
#239 = EDGE_CURVE('',#109,#232,#240,.T.);
#240 = LINE('',#241,#242);
#241 = CARTESIAN_POINT('',(-170.,-200.,0.));
#242 = VECTOR('',#243,1.);
#243 = DIRECTION('',(0.,1.,0.));
#244 = ORIENTED_EDGE('',*,*,#118,.T.);
#245 = PLANE('',#246);
#246 = AXIS2_PLACEMENT_3D('',#247,#248,#249);
#247 = CARTESIAN_POINT('',(-170.,-200.,0.));
#248 = DIRECTION('',(-1.,0.,0.));
#249 = DIRECTION('',(0.,1.,0.));
#250 = ADVANCED_FACE('',(#251),#343,.T.);
#251 = FACE_BOUND('',#252,.T.);
#252 = EDGE_LOOP('',(#253,#254,#255,#263,#271,#279,#287,#296,#304,#312,
    #320,#329,#337));
#253 = ORIENTED_EDGE('',*,*,#39,.T.);
#254 = ORIENTED_EDGE('',*,*,#140,.F.);
#255 = ORIENTED_EDGE('',*,*,#256,.F.);
#256 = EDGE_CURVE('',#257,#133,#259,.T.);
#257 = VERTEX_POINT('',#258);
#258 = CARTESIAN_POINT('',(0.,0.,0.));
#259 = LINE('',#260,#261);
#260 = CARTESIAN_POINT('',(0.,0.,0.));
#261 = VECTOR('',#262,1.);
#262 = DIRECTION('',(0.,-1.,0.));
#263 = ORIENTED_EDGE('',*,*,#264,.T.);
#264 = EDGE_CURVE('',#257,#265,#267,.T.);
#265 = VERTEX_POINT('',#266);
#266 = CARTESIAN_POINT('',(0.,0.,28.));
#267 = LINE('',#268,#269);
#268 = CARTESIAN_POINT('',(0.,0.,0.));
#269 = VECTOR('',#270,1.);
#270 = DIRECTION('',(0.,0.,1.));
#271 = ORIENTED_EDGE('',*,*,#272,.T.);
#272 = EDGE_CURVE('',#265,#273,#275,.T.);
#273 = VERTEX_POINT('',#274);
#274 = CARTESIAN_POINT('',(0.,-15.00000450333,28.));
#275 = LINE('',#276,#277);
#276 = CARTESIAN_POINT('',(0.,0.,28.));
#277 = VECTOR('',#278,1.);
#278 = DIRECTION('',(0.,-1.,0.));
#279 = ORIENTED_EDGE('',*,*,#280,.F.);
#280 = EDGE_CURVE('',#281,#273,#283,.T.);
#281 = VERTEX_POINT('',#282);
#282 = CARTESIAN_POINT('',(0.,-15.,15.000003464102));
#283 = LINE('',#284,#285);
#284 = CARTESIAN_POINT('',(0.,-15.,15.000003464102));
#285 = VECTOR('',#286,1.);
#286 = DIRECTION('',(0.,-3.464102070675E-07,1.));
#287 = ORIENTED_EDGE('',*,*,#288,.F.);
#288 = EDGE_CURVE('',#289,#281,#291,.T.);
#289 = VERTEX_POINT('',#290);
#290 = CARTESIAN_POINT('',(0.,-35.,15.));
#291 = CIRCLE('',#292,10.);
#292 = AXIS2_PLACEMENT_3D('',#293,#294,#295);
#293 = CARTESIAN_POINT('',(0.,-25.,15.));
#294 = DIRECTION('',(1.,0.,0.));
#295 = DIRECTION('',(0.,1.,0.));
#296 = ORIENTED_EDGE('',*,*,#297,.T.);
#297 = EDGE_CURVE('',#289,#298,#300,.T.);
#298 = VERTEX_POINT('',#299);
#299 = CARTESIAN_POINT('',(0.,-35.,28.));
#300 = LINE('',#301,#302);
#301 = CARTESIAN_POINT('',(0.,-35.,15.));
#302 = VECTOR('',#303,1.);
#303 = DIRECTION('',(0.,0.,1.));
#304 = ORIENTED_EDGE('',*,*,#305,.T.);
#305 = EDGE_CURVE('',#298,#306,#308,.T.);
#306 = VERTEX_POINT('',#307);
#307 = CARTESIAN_POINT('',(0.,-145.0000045033,28.));
#308 = LINE('',#309,#310);
#309 = CARTESIAN_POINT('',(0.,0.,28.));
#310 = VECTOR('',#311,1.);
#311 = DIRECTION('',(0.,-1.,0.));
#312 = ORIENTED_EDGE('',*,*,#313,.F.);
#313 = EDGE_CURVE('',#314,#306,#316,.T.);
#314 = VERTEX_POINT('',#315);
#315 = CARTESIAN_POINT('',(0.,-145.,15.000003464102));
#316 = LINE('',#317,#318);
#317 = CARTESIAN_POINT('',(0.,-145.,15.000003464102));
#318 = VECTOR('',#319,1.);
#319 = DIRECTION('',(0.,-3.464102064754E-07,1.));
#320 = ORIENTED_EDGE('',*,*,#321,.F.);
#321 = EDGE_CURVE('',#322,#314,#324,.T.);
#322 = VERTEX_POINT('',#323);
#323 = CARTESIAN_POINT('',(0.,-165.,15.));
#324 = CIRCLE('',#325,10.);
#325 = AXIS2_PLACEMENT_3D('',#326,#327,#328);
#326 = CARTESIAN_POINT('',(0.,-155.,15.));
#327 = DIRECTION('',(1.,0.,0.));
#328 = DIRECTION('',(0.,1.,0.));
#329 = ORIENTED_EDGE('',*,*,#330,.T.);
#330 = EDGE_CURVE('',#322,#331,#333,.T.);
#331 = VERTEX_POINT('',#332);
#332 = CARTESIAN_POINT('',(0.,-165.,28.));
#333 = LINE('',#334,#335);
#334 = CARTESIAN_POINT('',(0.,-165.,15.));
#335 = VECTOR('',#336,1.);
#336 = DIRECTION('',(0.,0.,1.));
#337 = ORIENTED_EDGE('',*,*,#338,.T.);
#338 = EDGE_CURVE('',#331,#40,#339,.T.);
#339 = LINE('',#340,#341);
#340 = CARTESIAN_POINT('',(0.,0.,28.));
#341 = VECTOR('',#342,1.);
#342 = DIRECTION('',(0.,-1.,0.));
#343 = PLANE('',#344);
#344 = AXIS2_PLACEMENT_3D('',#345,#346,#347);
#345 = CARTESIAN_POINT('',(0.,0.,0.));
#346 = DIRECTION('',(1.,0.,0.));
#347 = DIRECTION('',(0.,-1.,0.));
#348 = ADVANCED_FACE('',(#349),#708,.T.);
#349 = FACE_BOUND('',#350,.T.);
#350 = EDGE_LOOP('',(#351,#361,#369,#377,#385,#391,#392,#393,#394,#402,
    #410,#418,#426,#434,#442,#450,#458,#464,#465,#473,#481,#489,#497,
    #505,#513,#521,#529,#535,#536,#544,#552,#560,#568,#576,#584,#592,
    #600,#606,#607,#615,#623,#631,#639,#647,#655,#663,#671,#677,#678,
    #686,#694,#702));
#351 = ORIENTED_EDGE('',*,*,#352,.F.);
#352 = EDGE_CURVE('',#353,#355,#357,.T.);
#353 = VERTEX_POINT('',#354);
#354 = CARTESIAN_POINT('',(-137.,-100.,28.));
#355 = VERTEX_POINT('',#356);
#356 = CARTESIAN_POINT('',(-137.,-98.,28.));
#357 = LINE('',#358,#359);
#358 = CARTESIAN_POINT('',(-137.,-135.,28.));
#359 = VECTOR('',#360,1.);
#360 = DIRECTION('',(0.,1.,0.));
#361 = ORIENTED_EDGE('',*,*,#362,.F.);
#362 = EDGE_CURVE('',#363,#353,#365,.T.);
#363 = VERTEX_POINT('',#364);
#364 = CARTESIAN_POINT('',(-137.,-170.,28.));
#365 = LINE('',#366,#367);
#366 = CARTESIAN_POINT('',(-137.,-170.,28.));
#367 = VECTOR('',#368,1.);
#368 = DIRECTION('',(0.,1.,0.));
#369 = ORIENTED_EDGE('',*,*,#370,.F.);
#370 = EDGE_CURVE('',#371,#363,#373,.T.);
#371 = VERTEX_POINT('',#372);
#372 = CARTESIAN_POINT('',(-167.,-170.,28.));
#373 = LINE('',#374,#375);
#374 = CARTESIAN_POINT('',(-167.,-170.,28.));
#375 = VECTOR('',#376,1.);
#376 = DIRECTION('',(1.,0.,0.));
#377 = ORIENTED_EDGE('',*,*,#378,.F.);
#378 = EDGE_CURVE('',#379,#371,#381,.T.);
#379 = VERTEX_POINT('',#380);
#380 = CARTESIAN_POINT('',(-167.,-164.9999954966,28.));
#381 = LINE('',#382,#383);
#382 = CARTESIAN_POINT('',(-167.,-100.,28.));
#383 = VECTOR('',#384,1.);
#384 = DIRECTION('',(0.,-1.,0.));
#385 = ORIENTED_EDGE('',*,*,#386,.F.);
#386 = EDGE_CURVE('',#158,#379,#387,.T.);
#387 = LINE('',#388,#389);
#388 = CARTESIAN_POINT('',(-127.5,-164.9999954966,28.));
#389 = VECTOR('',#390,1.);
#390 = DIRECTION('',(1.,0.,0.));
#391 = ORIENTED_EDGE('',*,*,#157,.F.);
#392 = ORIENTED_EDGE('',*,*,#47,.F.);
#393 = ORIENTED_EDGE('',*,*,#338,.F.);
#394 = ORIENTED_EDGE('',*,*,#395,.T.);
#395 = EDGE_CURVE('',#331,#396,#398,.T.);
#396 = VERTEX_POINT('',#397);
#397 = CARTESIAN_POINT('',(-3.,-165.,28.));
#398 = LINE('',#399,#400);
#399 = CARTESIAN_POINT('',(-42.5,-165.,28.));
#400 = VECTOR('',#401,1.);
#401 = DIRECTION('',(-1.,0.,0.));
#402 = ORIENTED_EDGE('',*,*,#403,.F.);
#403 = EDGE_CURVE('',#404,#396,#406,.T.);
#404 = VERTEX_POINT('',#405);
#405 = CARTESIAN_POINT('',(-3.,-170.,28.));
#406 = LINE('',#407,#408);
#407 = CARTESIAN_POINT('',(-3.,-170.,28.));
#408 = VECTOR('',#409,1.);
#409 = DIRECTION('',(0.,1.,0.));
#410 = ORIENTED_EDGE('',*,*,#411,.F.);
#411 = EDGE_CURVE('',#412,#404,#414,.T.);
#412 = VERTEX_POINT('',#413);
#413 = CARTESIAN_POINT('',(-33.,-170.,28.));
#414 = LINE('',#415,#416);
#415 = CARTESIAN_POINT('',(-33.,-170.,28.));
#416 = VECTOR('',#417,1.);
#417 = DIRECTION('',(1.,0.,0.));
#418 = ORIENTED_EDGE('',*,*,#419,.F.);
#419 = EDGE_CURVE('',#420,#412,#422,.T.);
#420 = VERTEX_POINT('',#421);
#421 = CARTESIAN_POINT('',(-33.,-100.,28.));
#422 = LINE('',#423,#424);
#423 = CARTESIAN_POINT('',(-33.,-100.,28.));
#424 = VECTOR('',#425,1.);
#425 = DIRECTION('',(0.,-1.,0.));
#426 = ORIENTED_EDGE('',*,*,#427,.T.);
#427 = EDGE_CURVE('',#420,#428,#430,.T.);
#428 = VERTEX_POINT('',#429);
#429 = CARTESIAN_POINT('',(-33.,-98.,28.));
#430 = LINE('',#431,#432);
#431 = CARTESIAN_POINT('',(-33.,-100.,28.));
#432 = VECTOR('',#433,1.);
#433 = DIRECTION('',(0.,1.,0.));
#434 = ORIENTED_EDGE('',*,*,#435,.F.);
#435 = EDGE_CURVE('',#436,#428,#438,.T.);
#436 = VERTEX_POINT('',#437);
#437 = CARTESIAN_POINT('',(-3.,-98.,28.));
#438 = LINE('',#439,#440);
#439 = CARTESIAN_POINT('',(-3.,-98.,28.));
#440 = VECTOR('',#441,1.);
#441 = DIRECTION('',(-1.,0.,0.));
#442 = ORIENTED_EDGE('',*,*,#443,.F.);
#443 = EDGE_CURVE('',#444,#436,#446,.T.);
#444 = VERTEX_POINT('',#445);
#445 = CARTESIAN_POINT('',(-3.,-100.,28.));
#446 = LINE('',#447,#448);
#447 = CARTESIAN_POINT('',(-3.,-135.,28.));
#448 = VECTOR('',#449,1.);
#449 = DIRECTION('',(0.,1.,0.));
#450 = ORIENTED_EDGE('',*,*,#451,.F.);
#451 = EDGE_CURVE('',#452,#444,#454,.T.);
#452 = VERTEX_POINT('',#453);
#453 = CARTESIAN_POINT('',(-3.,-145.0000045033,28.));
#454 = LINE('',#455,#456);
#455 = CARTESIAN_POINT('',(-3.,-170.,28.));
#456 = VECTOR('',#457,1.);
#457 = DIRECTION('',(0.,1.,0.));
#458 = ORIENTED_EDGE('',*,*,#459,.F.);
#459 = EDGE_CURVE('',#306,#452,#460,.T.);
#460 = LINE('',#461,#462);
#461 = CARTESIAN_POINT('',(-42.5,-145.0000045033,28.));
#462 = VECTOR('',#463,1.);
#463 = DIRECTION('',(-1.,0.,0.));
#464 = ORIENTED_EDGE('',*,*,#305,.F.);
#465 = ORIENTED_EDGE('',*,*,#466,.T.);
#466 = EDGE_CURVE('',#298,#467,#469,.T.);
#467 = VERTEX_POINT('',#468);
#468 = CARTESIAN_POINT('',(-3.,-35.,28.));
#469 = LINE('',#470,#471);
#470 = CARTESIAN_POINT('',(-42.5,-35.,28.));
#471 = VECTOR('',#472,1.);
#472 = DIRECTION('',(-1.,0.,0.));
#473 = ORIENTED_EDGE('',*,*,#474,.F.);
#474 = EDGE_CURVE('',#475,#467,#477,.T.);
#475 = VERTEX_POINT('',#476);
#476 = CARTESIAN_POINT('',(-3.,-80.,28.));
#477 = LINE('',#478,#479);
#478 = CARTESIAN_POINT('',(-3.,-80.,28.));
#479 = VECTOR('',#480,1.);
#480 = DIRECTION('',(0.,1.,0.));
#481 = ORIENTED_EDGE('',*,*,#482,.T.);
#482 = EDGE_CURVE('',#475,#483,#485,.T.);
#483 = VERTEX_POINT('',#484);
#484 = CARTESIAN_POINT('',(-3.,-82.,28.));
#485 = LINE('',#486,#487);
#486 = CARTESIAN_POINT('',(-3.,-90.,28.));
#487 = VECTOR('',#488,1.);
#488 = DIRECTION('',(-0.,-1.,-0.));
#489 = ORIENTED_EDGE('',*,*,#490,.F.);
#490 = EDGE_CURVE('',#491,#483,#493,.T.);
#491 = VERTEX_POINT('',#492);
#492 = CARTESIAN_POINT('',(-33.,-82.,28.));
#493 = LINE('',#494,#495);
#494 = CARTESIAN_POINT('',(-33.,-82.,28.));
#495 = VECTOR('',#496,1.);
#496 = DIRECTION('',(1.,0.,0.));
#497 = ORIENTED_EDGE('',*,*,#498,.F.);
#498 = EDGE_CURVE('',#499,#491,#501,.T.);
#499 = VERTEX_POINT('',#500);
#500 = CARTESIAN_POINT('',(-33.,-80.,28.));
#501 = LINE('',#502,#503);
#502 = CARTESIAN_POINT('',(-33.,-55.,28.));
#503 = VECTOR('',#504,1.);
#504 = DIRECTION('',(0.,-1.,0.));
#505 = ORIENTED_EDGE('',*,*,#506,.F.);
#506 = EDGE_CURVE('',#507,#499,#509,.T.);
#507 = VERTEX_POINT('',#508);
#508 = CARTESIAN_POINT('',(-33.,-10.,28.));
#509 = LINE('',#510,#511);
#510 = CARTESIAN_POINT('',(-33.,-10.,28.));
#511 = VECTOR('',#512,1.);
#512 = DIRECTION('',(0.,-1.,0.));
#513 = ORIENTED_EDGE('',*,*,#514,.F.);
#514 = EDGE_CURVE('',#515,#507,#517,.T.);
#515 = VERTEX_POINT('',#516);
#516 = CARTESIAN_POINT('',(-3.,-10.,28.));
#517 = LINE('',#518,#519);
#518 = CARTESIAN_POINT('',(-3.,-10.,28.));
#519 = VECTOR('',#520,1.);
#520 = DIRECTION('',(-1.,0.,0.));
#521 = ORIENTED_EDGE('',*,*,#522,.F.);
#522 = EDGE_CURVE('',#523,#515,#525,.T.);
#523 = VERTEX_POINT('',#524);
#524 = CARTESIAN_POINT('',(-3.,-15.00000450333,28.));
#525 = LINE('',#526,#527);
#526 = CARTESIAN_POINT('',(-3.,-80.,28.));
#527 = VECTOR('',#528,1.);
#528 = DIRECTION('',(0.,1.,0.));
#529 = ORIENTED_EDGE('',*,*,#530,.F.);
#530 = EDGE_CURVE('',#273,#523,#531,.T.);
#531 = LINE('',#532,#533);
#532 = CARTESIAN_POINT('',(-42.5,-15.00000450333,28.));
#533 = VECTOR('',#534,1.);
#534 = DIRECTION('',(-1.,0.,0.));
#535 = ORIENTED_EDGE('',*,*,#272,.F.);
#536 = ORIENTED_EDGE('',*,*,#537,.F.);
#537 = EDGE_CURVE('',#538,#265,#540,.T.);
#538 = VERTEX_POINT('',#539);
#539 = CARTESIAN_POINT('',(-69.,0.,28.));
#540 = LINE('',#541,#542);
#541 = CARTESIAN_POINT('',(-170.,0.,28.));
#542 = VECTOR('',#543,1.);
#543 = DIRECTION('',(1.,0.,0.));
#544 = ORIENTED_EDGE('',*,*,#545,.F.);
#545 = EDGE_CURVE('',#546,#538,#548,.T.);
#546 = VERTEX_POINT('',#547);
#547 = CARTESIAN_POINT('',(-69.,-10.,28.));
#548 = LINE('',#549,#550);
#549 = CARTESIAN_POINT('',(-69.,-10.,28.));
#550 = VECTOR('',#551,1.);
#551 = DIRECTION('',(0.,1.,0.));
#552 = ORIENTED_EDGE('',*,*,#553,.F.);
#553 = EDGE_CURVE('',#554,#546,#556,.T.);
#554 = VERTEX_POINT('',#555);
#555 = CARTESIAN_POINT('',(-34.,-10.,28.));
#556 = LINE('',#557,#558);
#557 = CARTESIAN_POINT('',(-34.,-10.,28.));
#558 = VECTOR('',#559,1.);
#559 = DIRECTION('',(-1.,0.,0.));
#560 = ORIENTED_EDGE('',*,*,#561,.F.);
#561 = EDGE_CURVE('',#562,#554,#564,.T.);
#562 = VERTEX_POINT('',#563);
#563 = CARTESIAN_POINT('',(-34.,-170.,28.));
#564 = LINE('',#565,#566);
#565 = CARTESIAN_POINT('',(-34.,-170.,28.));
#566 = VECTOR('',#567,1.);
#567 = DIRECTION('',(0.,1.,0.));
#568 = ORIENTED_EDGE('',*,*,#569,.F.);
#569 = EDGE_CURVE('',#570,#562,#572,.T.);
#570 = VERTEX_POINT('',#571);
#571 = CARTESIAN_POINT('',(-136.,-170.,28.));
#572 = LINE('',#573,#574);
#573 = CARTESIAN_POINT('',(-136.,-170.,28.));
#574 = VECTOR('',#575,1.);
#575 = DIRECTION('',(1.,0.,0.));
#576 = ORIENTED_EDGE('',*,*,#577,.F.);
#577 = EDGE_CURVE('',#578,#570,#580,.T.);
#578 = VERTEX_POINT('',#579);
#579 = CARTESIAN_POINT('',(-136.,-10.,28.));
#580 = LINE('',#581,#582);
#581 = CARTESIAN_POINT('',(-136.,-10.,28.));
#582 = VECTOR('',#583,1.);
#583 = DIRECTION('',(0.,-1.,0.));
#584 = ORIENTED_EDGE('',*,*,#585,.F.);
#585 = EDGE_CURVE('',#586,#578,#588,.T.);
#586 = VERTEX_POINT('',#587);
#587 = CARTESIAN_POINT('',(-101.,-10.,28.));
#588 = LINE('',#589,#590);
#589 = CARTESIAN_POINT('',(-34.,-10.,28.));
#590 = VECTOR('',#591,1.);
#591 = DIRECTION('',(-1.,0.,0.));
#592 = ORIENTED_EDGE('',*,*,#593,.F.);
#593 = EDGE_CURVE('',#594,#586,#596,.T.);
#594 = VERTEX_POINT('',#595);
#595 = CARTESIAN_POINT('',(-101.,0.,28.));
#596 = LINE('',#597,#598);
#597 = CARTESIAN_POINT('',(-101.,0.,28.));
#598 = VECTOR('',#599,1.);
#599 = DIRECTION('',(0.,-1.,0.));
#600 = ORIENTED_EDGE('',*,*,#601,.F.);
#601 = EDGE_CURVE('',#224,#594,#602,.T.);
#602 = LINE('',#603,#604);
#603 = CARTESIAN_POINT('',(-170.,0.,28.));
#604 = VECTOR('',#605,1.);
#605 = DIRECTION('',(1.,0.,0.));
#606 = ORIENTED_EDGE('',*,*,#223,.F.);
#607 = ORIENTED_EDGE('',*,*,#608,.T.);
#608 = EDGE_CURVE('',#216,#609,#611,.T.);
#609 = VERTEX_POINT('',#610);
#610 = CARTESIAN_POINT('',(-167.,-15.00000450333,28.));
#611 = LINE('',#612,#613);
#612 = CARTESIAN_POINT('',(-127.5,-15.00000450333,28.));
#613 = VECTOR('',#614,1.);
#614 = DIRECTION('',(1.,0.,0.));
#615 = ORIENTED_EDGE('',*,*,#616,.F.);
#616 = EDGE_CURVE('',#617,#609,#619,.T.);
#617 = VERTEX_POINT('',#618);
#618 = CARTESIAN_POINT('',(-167.,-10.,28.));
#619 = LINE('',#620,#621);
#620 = CARTESIAN_POINT('',(-167.,-10.,28.));
#621 = VECTOR('',#622,1.);
#622 = DIRECTION('',(0.,-1.,0.));
#623 = ORIENTED_EDGE('',*,*,#624,.F.);
#624 = EDGE_CURVE('',#625,#617,#627,.T.);
#625 = VERTEX_POINT('',#626);
#626 = CARTESIAN_POINT('',(-137.,-10.,28.));
#627 = LINE('',#628,#629);
#628 = CARTESIAN_POINT('',(-137.,-10.,28.));
#629 = VECTOR('',#630,1.);
#630 = DIRECTION('',(-1.,0.,0.));
#631 = ORIENTED_EDGE('',*,*,#632,.F.);
#632 = EDGE_CURVE('',#633,#625,#635,.T.);
#633 = VERTEX_POINT('',#634);
#634 = CARTESIAN_POINT('',(-137.,-80.,28.));
#635 = LINE('',#636,#637);
#636 = CARTESIAN_POINT('',(-137.,-80.,28.));
#637 = VECTOR('',#638,1.);
#638 = DIRECTION('',(0.,1.,0.));
#639 = ORIENTED_EDGE('',*,*,#640,.T.);
#640 = EDGE_CURVE('',#633,#641,#643,.T.);
#641 = VERTEX_POINT('',#642);
#642 = CARTESIAN_POINT('',(-137.,-82.,28.));
#643 = LINE('',#644,#645);
#644 = CARTESIAN_POINT('',(-137.,-90.,28.));
#645 = VECTOR('',#646,1.);
#646 = DIRECTION('',(-0.,-1.,-0.));
#647 = ORIENTED_EDGE('',*,*,#648,.F.);
#648 = EDGE_CURVE('',#649,#641,#651,.T.);
#649 = VERTEX_POINT('',#650);
#650 = CARTESIAN_POINT('',(-167.,-82.,28.));
#651 = LINE('',#652,#653);
#652 = CARTESIAN_POINT('',(-167.,-82.,28.));
#653 = VECTOR('',#654,1.);
#654 = DIRECTION('',(1.,0.,0.));
#655 = ORIENTED_EDGE('',*,*,#656,.F.);
#656 = EDGE_CURVE('',#657,#649,#659,.T.);
#657 = VERTEX_POINT('',#658);
#658 = CARTESIAN_POINT('',(-167.,-80.,28.));
#659 = LINE('',#660,#661);
#660 = CARTESIAN_POINT('',(-167.,-55.,28.));
#661 = VECTOR('',#662,1.);
#662 = DIRECTION('',(0.,-1.,0.));
#663 = ORIENTED_EDGE('',*,*,#664,.F.);
#664 = EDGE_CURVE('',#665,#657,#667,.T.);
#665 = VERTEX_POINT('',#666);
#666 = CARTESIAN_POINT('',(-167.,-35.,28.));
#667 = LINE('',#668,#669);
#668 = CARTESIAN_POINT('',(-167.,-10.,28.));
#669 = VECTOR('',#670,1.);
#670 = DIRECTION('',(0.,-1.,0.));
#671 = ORIENTED_EDGE('',*,*,#672,.F.);
#672 = EDGE_CURVE('',#191,#665,#673,.T.);
#673 = LINE('',#674,#675);
#674 = CARTESIAN_POINT('',(-127.5,-35.,28.));
#675 = VECTOR('',#676,1.);
#676 = DIRECTION('',(1.,0.,0.));
#677 = ORIENTED_EDGE('',*,*,#190,.F.);
#678 = ORIENTED_EDGE('',*,*,#679,.T.);
#679 = EDGE_CURVE('',#183,#680,#682,.T.);
#680 = VERTEX_POINT('',#681);
#681 = CARTESIAN_POINT('',(-167.,-145.,28.));
#682 = LINE('',#683,#684);
#683 = CARTESIAN_POINT('',(-127.5,-145.,28.));
#684 = VECTOR('',#685,1.);
#685 = DIRECTION('',(1.,0.,0.));
#686 = ORIENTED_EDGE('',*,*,#687,.F.);
#687 = EDGE_CURVE('',#688,#680,#690,.T.);
#688 = VERTEX_POINT('',#689);
#689 = CARTESIAN_POINT('',(-167.,-100.,28.));
#690 = LINE('',#691,#692);
#691 = CARTESIAN_POINT('',(-167.,-100.,28.));
#692 = VECTOR('',#693,1.);
#693 = DIRECTION('',(0.,-1.,0.));
#694 = ORIENTED_EDGE('',*,*,#695,.T.);
#695 = EDGE_CURVE('',#688,#696,#698,.T.);
#696 = VERTEX_POINT('',#697);
#697 = CARTESIAN_POINT('',(-167.,-98.,28.));
#698 = LINE('',#699,#700);
#699 = CARTESIAN_POINT('',(-167.,-100.,28.));
#700 = VECTOR('',#701,1.);
#701 = DIRECTION('',(0.,1.,0.));
#702 = ORIENTED_EDGE('',*,*,#703,.F.);
#703 = EDGE_CURVE('',#355,#696,#704,.T.);
#704 = LINE('',#705,#706);
#705 = CARTESIAN_POINT('',(-137.,-98.,28.));
#706 = VECTOR('',#707,1.);
#707 = DIRECTION('',(-1.,0.,0.));
#708 = PLANE('',#709);
#709 = AXIS2_PLACEMENT_3D('',#710,#711,#712);
#710 = CARTESIAN_POINT('',(-85.,-100.,28.));
#711 = DIRECTION('',(0.,0.,1.));
#712 = DIRECTION('',(1.,0.,0.));
#713 = ADVANCED_FACE('',(#714),#727,.F.);
#714 = FACE_BOUND('',#715,.F.);
#715 = EDGE_LOOP('',(#716,#717,#718,#719,#725,#726));
#716 = ORIENTED_EDGE('',*,*,#86,.F.);
#717 = ORIENTED_EDGE('',*,*,#132,.F.);
#718 = ORIENTED_EDGE('',*,*,#256,.F.);
#719 = ORIENTED_EDGE('',*,*,#720,.F.);
#720 = EDGE_CURVE('',#232,#257,#721,.T.);
#721 = LINE('',#722,#723);
#722 = CARTESIAN_POINT('',(-170.,0.,0.));
#723 = VECTOR('',#724,1.);
#724 = DIRECTION('',(1.,0.,0.));
#725 = ORIENTED_EDGE('',*,*,#239,.F.);
#726 = ORIENTED_EDGE('',*,*,#108,.F.);
#727 = PLANE('',#728);
#728 = AXIS2_PLACEMENT_3D('',#729,#730,#731);
#729 = CARTESIAN_POINT('',(-85.,-100.,0.));
#730 = DIRECTION('',(0.,0.,1.));
#731 = DIRECTION('',(1.,0.,0.));
#732 = ADVANCED_FACE('',(#733),#751,.F.);
#733 = FACE_BOUND('',#734,.F.);
#734 = EDGE_LOOP('',(#735,#736,#744,#750));
#735 = ORIENTED_EDGE('',*,*,#165,.F.);
#736 = ORIENTED_EDGE('',*,*,#737,.T.);
#737 = EDGE_CURVE('',#166,#738,#740,.T.);
#738 = VERTEX_POINT('',#739);
#739 = CARTESIAN_POINT('',(-167.,-164.9999999999,15.000003464102));
#740 = LINE('',#741,#742);
#741 = CARTESIAN_POINT('',(-170.,-164.9999999999,15.000003464102));
#742 = VECTOR('',#743,1.);
#743 = DIRECTION('',(1.,0.,0.));
#744 = ORIENTED_EDGE('',*,*,#745,.T.);
#745 = EDGE_CURVE('',#738,#379,#746,.T.);
#746 = LINE('',#747,#748);
#747 = CARTESIAN_POINT('',(-167.,-164.9999999999,15.000003464102));
#748 = VECTOR('',#749,1.);
#749 = DIRECTION('',(0.,3.464102064754E-07,1.));
#750 = ORIENTED_EDGE('',*,*,#386,.F.);
#751 = PLANE('',#752);
#752 = AXIS2_PLACEMENT_3D('',#753,#754,#755);
#753 = CARTESIAN_POINT('',(-170.,-164.9999999999,15.000003464102));
#754 = DIRECTION('',(0.,-1.,3.464102064754E-07));
#755 = DIRECTION('',(0.,3.464102064754E-07,1.));
#756 = ADVANCED_FACE('',(#757),#786,.T.);
#757 = FACE_BOUND('',#758,.T.);
#758 = EDGE_LOOP('',(#759,#760,#761,#762,#770,#778,#784,#785));
#759 = ORIENTED_EDGE('',*,*,#720,.F.);
#760 = ORIENTED_EDGE('',*,*,#231,.T.);
#761 = ORIENTED_EDGE('',*,*,#601,.T.);
#762 = ORIENTED_EDGE('',*,*,#763,.T.);
#763 = EDGE_CURVE('',#594,#764,#766,.T.);
#764 = VERTEX_POINT('',#765);
#765 = CARTESIAN_POINT('',(-101.,0.,23.5));
#766 = LINE('',#767,#768);
#767 = CARTESIAN_POINT('',(-101.,0.,28.));
#768 = VECTOR('',#769,1.);
#769 = DIRECTION('',(-0.,-0.,-1.));
#770 = ORIENTED_EDGE('',*,*,#771,.F.);
#771 = EDGE_CURVE('',#772,#764,#774,.T.);
#772 = VERTEX_POINT('',#773);
#773 = CARTESIAN_POINT('',(-69.,0.,23.5));
#774 = LINE('',#775,#776);
#775 = CARTESIAN_POINT('',(-69.,0.,23.5));
#776 = VECTOR('',#777,1.);
#777 = DIRECTION('',(-1.,0.,0.));
#778 = ORIENTED_EDGE('',*,*,#779,.F.);
#779 = EDGE_CURVE('',#538,#772,#780,.T.);
#780 = LINE('',#781,#782);
#781 = CARTESIAN_POINT('',(-69.,0.,28.));
#782 = VECTOR('',#783,1.);
#783 = DIRECTION('',(-0.,-0.,-1.));
#784 = ORIENTED_EDGE('',*,*,#537,.T.);
#785 = ORIENTED_EDGE('',*,*,#264,.F.);
#786 = PLANE('',#787);
#787 = AXIS2_PLACEMENT_3D('',#788,#789,#790);
#788 = CARTESIAN_POINT('',(-170.,0.,0.));
#789 = DIRECTION('',(0.,1.,0.));
#790 = DIRECTION('',(1.,0.,0.));
#791 = ADVANCED_FACE('',(#792),#820,.F.);
#792 = FACE_BOUND('',#793,.F.);
#793 = EDGE_LOOP('',(#794,#802,#811,#818,#819));
#794 = ORIENTED_EDGE('',*,*,#795,.T.);
#795 = EDGE_CURVE('',#174,#796,#798,.T.);
#796 = VERTEX_POINT('',#797);
#797 = CARTESIAN_POINT('',(-167.,-145.,15.));
#798 = LINE('',#799,#800);
#799 = CARTESIAN_POINT('',(-170.,-145.,15.));
#800 = VECTOR('',#801,1.);
#801 = DIRECTION('',(1.,0.,0.));
#802 = ORIENTED_EDGE('',*,*,#803,.T.);
#803 = EDGE_CURVE('',#796,#804,#806,.T.);
#804 = VERTEX_POINT('',#805);
#805 = CARTESIAN_POINT('',(-167.,-154.9999999999,5.));
#806 = CIRCLE('',#807,10.);
#807 = AXIS2_PLACEMENT_3D('',#808,#809,#810);
#808 = CARTESIAN_POINT('',(-167.,-155.,15.));
#809 = DIRECTION('',(-1.,0.,0.));
#810 = DIRECTION('',(0.,-1.,0.));
#811 = ORIENTED_EDGE('',*,*,#812,.T.);
#812 = EDGE_CURVE('',#804,#738,#813,.T.);
#813 = CIRCLE('',#814,10.);
#814 = AXIS2_PLACEMENT_3D('',#815,#816,#817);
#815 = CARTESIAN_POINT('',(-167.,-155.,15.));
#816 = DIRECTION('',(-1.,0.,0.));
#817 = DIRECTION('',(0.,-1.,0.));
#818 = ORIENTED_EDGE('',*,*,#737,.F.);
#819 = ORIENTED_EDGE('',*,*,#173,.F.);
#820 = CYLINDRICAL_SURFACE('',#821,10.);
#821 = AXIS2_PLACEMENT_3D('',#822,#823,#824);
#822 = CARTESIAN_POINT('',(-170.,-155.,15.));
#823 = DIRECTION('',(-1.,0.,0.));
#824 = DIRECTION('',(0.,-1.,0.));
#825 = ADVANCED_FACE('',(#826),#837,.T.);
#826 = FACE_BOUND('',#827,.T.);
#827 = EDGE_LOOP('',(#828,#829,#830,#836));
#828 = ORIENTED_EDGE('',*,*,#182,.F.);
#829 = ORIENTED_EDGE('',*,*,#795,.T.);
#830 = ORIENTED_EDGE('',*,*,#831,.T.);
#831 = EDGE_CURVE('',#796,#680,#832,.T.);
#832 = LINE('',#833,#834);
#833 = CARTESIAN_POINT('',(-167.,-145.,15.));
#834 = VECTOR('',#835,1.);
#835 = DIRECTION('',(0.,0.,1.));
#836 = ORIENTED_EDGE('',*,*,#679,.F.);
#837 = PLANE('',#838);
#838 = AXIS2_PLACEMENT_3D('',#839,#840,#841);
#839 = CARTESIAN_POINT('',(-170.,-145.,15.));
#840 = DIRECTION('',(0.,-1.,0.));
#841 = DIRECTION('',(0.,0.,1.));
#842 = ADVANCED_FACE('',(#843),#861,.T.);
#843 = FACE_BOUND('',#844,.T.);
#844 = EDGE_LOOP('',(#845,#846,#854,#860));
#845 = ORIENTED_EDGE('',*,*,#215,.F.);
#846 = ORIENTED_EDGE('',*,*,#847,.T.);
#847 = EDGE_CURVE('',#207,#848,#850,.T.);
#848 = VERTEX_POINT('',#849);
#849 = CARTESIAN_POINT('',(-167.,-15.,15.000003464102));
#850 = LINE('',#851,#852);
#851 = CARTESIAN_POINT('',(-170.,-15.,15.000003464102));
#852 = VECTOR('',#853,1.);
#853 = DIRECTION('',(1.,0.,0.));
#854 = ORIENTED_EDGE('',*,*,#855,.T.);
#855 = EDGE_CURVE('',#848,#609,#856,.T.);
#856 = LINE('',#857,#858);
#857 = CARTESIAN_POINT('',(-167.,-15.,15.000003464102));
#858 = VECTOR('',#859,1.);
#859 = DIRECTION('',(0.,-3.464102062385E-07,1.));
#860 = ORIENTED_EDGE('',*,*,#608,.F.);
#861 = PLANE('',#862);
#862 = AXIS2_PLACEMENT_3D('',#863,#864,#865);
#863 = CARTESIAN_POINT('',(-170.,-15.,15.000003464102));
#864 = DIRECTION('',(0.,-1.,-3.464102062385E-07));
#865 = DIRECTION('',(0.,-3.464102062385E-07,1.));
#866 = ADVANCED_FACE('',(#867),#895,.F.);
#867 = FACE_BOUND('',#868,.F.);
#868 = EDGE_LOOP('',(#869,#870,#879,#888,#894));
#869 = ORIENTED_EDGE('',*,*,#847,.T.);
#870 = ORIENTED_EDGE('',*,*,#871,.T.);
#871 = EDGE_CURVE('',#848,#872,#874,.T.);
#872 = VERTEX_POINT('',#873);
#873 = CARTESIAN_POINT('',(-167.,-25.,5.));
#874 = CIRCLE('',#875,10.);
#875 = AXIS2_PLACEMENT_3D('',#876,#877,#878);
#876 = CARTESIAN_POINT('',(-167.,-25.,15.));
#877 = DIRECTION('',(-1.,0.,0.));
#878 = DIRECTION('',(0.,-1.,0.));
#879 = ORIENTED_EDGE('',*,*,#880,.T.);
#880 = EDGE_CURVE('',#872,#881,#883,.T.);
#881 = VERTEX_POINT('',#882);
#882 = CARTESIAN_POINT('',(-167.,-35.,15.));
#883 = CIRCLE('',#884,10.);
#884 = AXIS2_PLACEMENT_3D('',#885,#886,#887);
#885 = CARTESIAN_POINT('',(-167.,-25.,15.));
#886 = DIRECTION('',(-1.,0.,0.));
#887 = DIRECTION('',(0.,-1.,0.));
#888 = ORIENTED_EDGE('',*,*,#889,.F.);
#889 = EDGE_CURVE('',#199,#881,#890,.T.);
#890 = LINE('',#891,#892);
#891 = CARTESIAN_POINT('',(-170.,-35.,15.));
#892 = VECTOR('',#893,1.);
#893 = DIRECTION('',(1.,0.,0.));
#894 = ORIENTED_EDGE('',*,*,#206,.F.);
#895 = CYLINDRICAL_SURFACE('',#896,10.);
#896 = AXIS2_PLACEMENT_3D('',#897,#898,#899);
#897 = CARTESIAN_POINT('',(-170.,-25.,15.));
#898 = DIRECTION('',(-1.,0.,0.));
#899 = DIRECTION('',(0.,-1.,0.));
#900 = ADVANCED_FACE('',(#901),#912,.F.);
#901 = FACE_BOUND('',#902,.F.);
#902 = EDGE_LOOP('',(#903,#904,#905,#911));
#903 = ORIENTED_EDGE('',*,*,#198,.F.);
#904 = ORIENTED_EDGE('',*,*,#889,.T.);
#905 = ORIENTED_EDGE('',*,*,#906,.T.);
#906 = EDGE_CURVE('',#881,#665,#907,.T.);
#907 = LINE('',#908,#909);
#908 = CARTESIAN_POINT('',(-167.,-35.,15.));
#909 = VECTOR('',#910,1.);
#910 = DIRECTION('',(0.,0.,1.));
#911 = ORIENTED_EDGE('',*,*,#672,.F.);
#912 = PLANE('',#913);
#913 = AXIS2_PLACEMENT_3D('',#914,#915,#916);
#914 = CARTESIAN_POINT('',(-170.,-35.,15.));
#915 = DIRECTION('',(0.,-1.,0.));
#916 = DIRECTION('',(0.,0.,1.));
#917 = ADVANCED_FACE('',(#918),#936,.T.);
#918 = FACE_BOUND('',#919,.T.);
#919 = EDGE_LOOP('',(#920,#921,#929,#935));
#920 = ORIENTED_EDGE('',*,*,#330,.F.);
#921 = ORIENTED_EDGE('',*,*,#922,.T.);
#922 = EDGE_CURVE('',#322,#923,#925,.T.);
#923 = VERTEX_POINT('',#924);
#924 = CARTESIAN_POINT('',(-3.,-165.,15.));
#925 = LINE('',#926,#927);
#926 = CARTESIAN_POINT('',(0.,-165.,15.));
#927 = VECTOR('',#928,1.);
#928 = DIRECTION('',(-1.,-0.,-0.));
#929 = ORIENTED_EDGE('',*,*,#930,.T.);
#930 = EDGE_CURVE('',#923,#396,#931,.T.);
#931 = LINE('',#932,#933);
#932 = CARTESIAN_POINT('',(-3.,-165.,15.));
#933 = VECTOR('',#934,1.);
#934 = DIRECTION('',(0.,0.,1.));
#935 = ORIENTED_EDGE('',*,*,#395,.F.);
#936 = PLANE('',#937);
#937 = AXIS2_PLACEMENT_3D('',#938,#939,#940);
#938 = CARTESIAN_POINT('',(0.,-165.,15.));
#939 = DIRECTION('',(0.,1.,0.));
#940 = DIRECTION('',(0.,0.,1.));
#941 = ADVANCED_FACE('',(#942),#970,.F.);
#942 = FACE_BOUND('',#943,.F.);
#943 = EDGE_LOOP('',(#944,#945,#954,#963,#969));
#944 = ORIENTED_EDGE('',*,*,#922,.T.);
#945 = ORIENTED_EDGE('',*,*,#946,.T.);
#946 = EDGE_CURVE('',#923,#947,#949,.T.);
#947 = VERTEX_POINT('',#948);
#948 = CARTESIAN_POINT('',(-3.,-154.9999999999,5.));
#949 = CIRCLE('',#950,10.);
#950 = AXIS2_PLACEMENT_3D('',#951,#952,#953);
#951 = CARTESIAN_POINT('',(-3.,-155.,15.));
#952 = DIRECTION('',(1.,0.,0.));
#953 = DIRECTION('',(0.,1.,0.));
#954 = ORIENTED_EDGE('',*,*,#955,.T.);
#955 = EDGE_CURVE('',#947,#956,#958,.T.);
#956 = VERTEX_POINT('',#957);
#957 = CARTESIAN_POINT('',(-3.,-145.,15.000003464102));
#958 = CIRCLE('',#959,10.);
#959 = AXIS2_PLACEMENT_3D('',#960,#961,#962);
#960 = CARTESIAN_POINT('',(-3.,-155.,15.));
#961 = DIRECTION('',(1.,0.,0.));
#962 = DIRECTION('',(0.,1.,0.));
#963 = ORIENTED_EDGE('',*,*,#964,.F.);
#964 = EDGE_CURVE('',#314,#956,#965,.T.);
#965 = LINE('',#966,#967);
#966 = CARTESIAN_POINT('',(0.,-145.,15.000003464102));
#967 = VECTOR('',#968,1.);
#968 = DIRECTION('',(-1.,-0.,-0.));
#969 = ORIENTED_EDGE('',*,*,#321,.F.);
#970 = CYLINDRICAL_SURFACE('',#971,10.);
#971 = AXIS2_PLACEMENT_3D('',#972,#973,#974);
#972 = CARTESIAN_POINT('',(0.,-155.,15.));
#973 = DIRECTION('',(1.,0.,0.));
#974 = DIRECTION('',(0.,1.,0.));
#975 = ADVANCED_FACE('',(#976),#987,.F.);
#976 = FACE_BOUND('',#977,.F.);
#977 = EDGE_LOOP('',(#978,#979,#980,#986));
#978 = ORIENTED_EDGE('',*,*,#313,.F.);
#979 = ORIENTED_EDGE('',*,*,#964,.T.);
#980 = ORIENTED_EDGE('',*,*,#981,.T.);
#981 = EDGE_CURVE('',#956,#452,#982,.T.);
#982 = LINE('',#983,#984);
#983 = CARTESIAN_POINT('',(-3.,-145.,15.000003464102));
#984 = VECTOR('',#985,1.);
#985 = DIRECTION('',(0.,-3.464102064754E-07,1.));
#986 = ORIENTED_EDGE('',*,*,#459,.F.);
#987 = PLANE('',#988);
#988 = AXIS2_PLACEMENT_3D('',#989,#990,#991);
#989 = CARTESIAN_POINT('',(0.,-145.,15.000003464102));
#990 = DIRECTION('',(0.,1.,3.464102064754E-07));
#991 = DIRECTION('',(0.,-3.464102064754E-07,1.));
#992 = ADVANCED_FACE('',(#993),#1011,.F.);
#993 = FACE_BOUND('',#994,.F.);
#994 = EDGE_LOOP('',(#995,#996,#1004,#1010));
#995 = ORIENTED_EDGE('',*,*,#280,.F.);
#996 = ORIENTED_EDGE('',*,*,#997,.T.);
#997 = EDGE_CURVE('',#281,#998,#1000,.T.);
#998 = VERTEX_POINT('',#999);
#999 = CARTESIAN_POINT('',(-3.,-15.,15.000003464102));
#1000 = LINE('',#1001,#1002);
#1001 = CARTESIAN_POINT('',(0.,-15.,15.000003464102));
#1002 = VECTOR('',#1003,1.);
#1003 = DIRECTION('',(-1.,-0.,-0.));
#1004 = ORIENTED_EDGE('',*,*,#1005,.T.);
#1005 = EDGE_CURVE('',#998,#523,#1006,.T.);
#1006 = LINE('',#1007,#1008);
#1007 = CARTESIAN_POINT('',(-3.,-15.,15.000003464102));
#1008 = VECTOR('',#1009,1.);
#1009 = DIRECTION('',(0.,-3.464102070675E-07,1.));
#1010 = ORIENTED_EDGE('',*,*,#530,.F.);
#1011 = PLANE('',#1012);
#1012 = AXIS2_PLACEMENT_3D('',#1013,#1014,#1015);
#1013 = CARTESIAN_POINT('',(0.,-15.,15.000003464102));
#1014 = DIRECTION('',(0.,1.,3.464102070675E-07));
#1015 = DIRECTION('',(0.,-3.464102070675E-07,1.));
#1016 = ADVANCED_FACE('',(#1017),#1045,.F.);
#1017 = FACE_BOUND('',#1018,.F.);
#1018 = EDGE_LOOP('',(#1019,#1027,#1036,#1043,#1044));
#1019 = ORIENTED_EDGE('',*,*,#1020,.T.);
#1020 = EDGE_CURVE('',#289,#1021,#1023,.T.);
#1021 = VERTEX_POINT('',#1022);
#1022 = CARTESIAN_POINT('',(-3.,-35.,15.));
#1023 = LINE('',#1024,#1025);
#1024 = CARTESIAN_POINT('',(0.,-35.,15.));
#1025 = VECTOR('',#1026,1.);
#1026 = DIRECTION('',(-1.,-0.,-0.));
#1027 = ORIENTED_EDGE('',*,*,#1028,.T.);
#1028 = EDGE_CURVE('',#1021,#1029,#1031,.T.);
#1029 = VERTEX_POINT('',#1030);
#1030 = CARTESIAN_POINT('',(-3.,-24.99999999999,5.));
#1031 = CIRCLE('',#1032,10.);
#1032 = AXIS2_PLACEMENT_3D('',#1033,#1034,#1035);
#1033 = CARTESIAN_POINT('',(-3.,-25.,15.));
#1034 = DIRECTION('',(1.,0.,0.));
#1035 = DIRECTION('',(0.,1.,0.));
#1036 = ORIENTED_EDGE('',*,*,#1037,.T.);
#1037 = EDGE_CURVE('',#1029,#998,#1038,.T.);
#1038 = CIRCLE('',#1039,10.);
#1039 = AXIS2_PLACEMENT_3D('',#1040,#1041,#1042);
#1040 = CARTESIAN_POINT('',(-3.,-25.,15.));
#1041 = DIRECTION('',(1.,0.,0.));
#1042 = DIRECTION('',(0.,1.,0.));
#1043 = ORIENTED_EDGE('',*,*,#997,.F.);
#1044 = ORIENTED_EDGE('',*,*,#288,.F.);
#1045 = CYLINDRICAL_SURFACE('',#1046,10.);
#1046 = AXIS2_PLACEMENT_3D('',#1047,#1048,#1049);
#1047 = CARTESIAN_POINT('',(0.,-25.,15.));
#1048 = DIRECTION('',(1.,0.,0.));
#1049 = DIRECTION('',(0.,1.,0.));
#1050 = ADVANCED_FACE('',(#1051),#1062,.T.);
#1051 = FACE_BOUND('',#1052,.T.);
#1052 = EDGE_LOOP('',(#1053,#1054,#1055,#1061));
#1053 = ORIENTED_EDGE('',*,*,#297,.F.);
#1054 = ORIENTED_EDGE('',*,*,#1020,.T.);
#1055 = ORIENTED_EDGE('',*,*,#1056,.T.);
#1056 = EDGE_CURVE('',#1021,#467,#1057,.T.);
#1057 = LINE('',#1058,#1059);
#1058 = CARTESIAN_POINT('',(-3.,-35.,15.));
#1059 = VECTOR('',#1060,1.);
#1060 = DIRECTION('',(0.,0.,1.));
#1061 = ORIENTED_EDGE('',*,*,#466,.F.);
#1062 = PLANE('',#1063);
#1063 = AXIS2_PLACEMENT_3D('',#1064,#1065,#1066);
#1064 = CARTESIAN_POINT('',(0.,-35.,15.));
#1065 = DIRECTION('',(0.,1.,0.));
#1066 = DIRECTION('',(0.,0.,1.));
#1067 = ADVANCED_FACE('',(#1068),#1102,.F.);
#1068 = FACE_BOUND('',#1069,.F.);
#1069 = EDGE_LOOP('',(#1070,#1080,#1086,#1087,#1088,#1096));
#1070 = ORIENTED_EDGE('',*,*,#1071,.F.);
#1071 = EDGE_CURVE('',#1072,#1074,#1076,.T.);
#1072 = VERTEX_POINT('',#1073);
#1073 = CARTESIAN_POINT('',(-137.,-100.,26.));
#1074 = VERTEX_POINT('',#1075);
#1075 = CARTESIAN_POINT('',(-137.,-100.,5.));
#1076 = LINE('',#1077,#1078);
#1077 = CARTESIAN_POINT('',(-137.,-100.,28.));
#1078 = VECTOR('',#1079,1.);
#1079 = DIRECTION('',(-0.,-0.,-1.));
#1080 = ORIENTED_EDGE('',*,*,#1081,.F.);
#1081 = EDGE_CURVE('',#355,#1072,#1082,.T.);
#1082 = LINE('',#1083,#1084);
#1083 = CARTESIAN_POINT('',(-137.,-116.5,9.5));
#1084 = VECTOR('',#1085,1.);
#1085 = DIRECTION('',(0.,-0.707106781187,-0.707106781187));
#1086 = ORIENTED_EDGE('',*,*,#352,.F.);
#1087 = ORIENTED_EDGE('',*,*,#362,.F.);
#1088 = ORIENTED_EDGE('',*,*,#1089,.T.);
#1089 = EDGE_CURVE('',#363,#1090,#1092,.T.);
#1090 = VERTEX_POINT('',#1091);
#1091 = CARTESIAN_POINT('',(-137.,-170.,5.));
#1092 = LINE('',#1093,#1094);
#1093 = CARTESIAN_POINT('',(-137.,-170.,28.));
#1094 = VECTOR('',#1095,1.);
#1095 = DIRECTION('',(-0.,-0.,-1.));
#1096 = ORIENTED_EDGE('',*,*,#1097,.T.);
#1097 = EDGE_CURVE('',#1090,#1074,#1098,.T.);
#1098 = LINE('',#1099,#1100);
#1099 = CARTESIAN_POINT('',(-137.,-170.,5.));
#1100 = VECTOR('',#1101,1.);
#1101 = DIRECTION('',(0.,1.,0.));
#1102 = PLANE('',#1103);
#1103 = AXIS2_PLACEMENT_3D('',#1104,#1105,#1106);
#1104 = CARTESIAN_POINT('',(-137.,-170.,28.));
#1105 = DIRECTION('',(1.,0.,0.));
#1106 = DIRECTION('',(0.,1.,0.));
#1107 = ADVANCED_FACE('',(#1108),#1126,.F.);
#1108 = FACE_BOUND('',#1109,.T.);
#1109 = EDGE_LOOP('',(#1110,#1111,#1112,#1120));
#1110 = ORIENTED_EDGE('',*,*,#1081,.F.);
#1111 = ORIENTED_EDGE('',*,*,#703,.T.);
#1112 = ORIENTED_EDGE('',*,*,#1113,.T.);
#1113 = EDGE_CURVE('',#696,#1114,#1116,.T.);
#1114 = VERTEX_POINT('',#1115);
#1115 = CARTESIAN_POINT('',(-167.,-100.,26.));
#1116 = LINE('',#1117,#1118);
#1117 = CARTESIAN_POINT('',(-167.,-99.,27.));
#1118 = VECTOR('',#1119,1.);
#1119 = DIRECTION('',(-0.,-0.707106781187,-0.707106781187));
#1120 = ORIENTED_EDGE('',*,*,#1121,.F.);
#1121 = EDGE_CURVE('',#1072,#1114,#1122,.T.);
#1122 = LINE('',#1123,#1124);
#1123 = CARTESIAN_POINT('',(-137.,-100.,26.));
#1124 = VECTOR('',#1125,1.);
#1125 = DIRECTION('',(-1.,0.,0.));
#1126 = PLANE('',#1127);
#1127 = AXIS2_PLACEMENT_3D('',#1128,#1129,#1130);
#1128 = CARTESIAN_POINT('',(-137.,-99.,27.));
#1129 = DIRECTION('',(0.,0.707106781187,-0.707106781187));
#1130 = DIRECTION('',(1.,0.,0.));
#1131 = ADVANCED_FACE('',(#1132),#1153,.F.);
#1132 = FACE_BOUND('',#1133,.F.);
#1133 = EDGE_LOOP('',(#1134,#1142,#1148,#1149,#1150,#1151,#1152));
#1134 = ORIENTED_EDGE('',*,*,#1135,.T.);
#1135 = EDGE_CURVE('',#1114,#1136,#1138,.T.);
#1136 = VERTEX_POINT('',#1137);
#1137 = CARTESIAN_POINT('',(-167.,-100.,5.));
#1138 = LINE('',#1139,#1140);
#1139 = CARTESIAN_POINT('',(-167.,-100.,28.));
#1140 = VECTOR('',#1141,1.);
#1141 = DIRECTION('',(-0.,-0.,-1.));
#1142 = ORIENTED_EDGE('',*,*,#1143,.T.);
#1143 = EDGE_CURVE('',#1136,#804,#1144,.T.);
#1144 = LINE('',#1145,#1146);
#1145 = CARTESIAN_POINT('',(-167.,-100.,5.));
#1146 = VECTOR('',#1147,1.);
#1147 = DIRECTION('',(0.,-1.,0.));
#1148 = ORIENTED_EDGE('',*,*,#803,.F.);
#1149 = ORIENTED_EDGE('',*,*,#831,.T.);
#1150 = ORIENTED_EDGE('',*,*,#687,.F.);
#1151 = ORIENTED_EDGE('',*,*,#695,.T.);
#1152 = ORIENTED_EDGE('',*,*,#1113,.T.);
#1153 = PLANE('',#1154);
#1154 = AXIS2_PLACEMENT_3D('',#1155,#1156,#1157);
#1155 = CARTESIAN_POINT('',(-167.,-100.,28.));
#1156 = DIRECTION('',(-1.,0.,0.));
#1157 = DIRECTION('',(0.,-1.,0.));
#1158 = ADVANCED_FACE('',(#1159),#1187,.F.);
#1159 = FACE_BOUND('',#1160,.F.);
#1160 = EDGE_LOOP('',(#1161,#1171,#1177,#1178,#1179,#1180,#1181));
#1161 = ORIENTED_EDGE('',*,*,#1162,.F.);
#1162 = EDGE_CURVE('',#1163,#1165,#1167,.T.);
#1163 = VERTEX_POINT('',#1164);
#1164 = CARTESIAN_POINT('',(-167.,-80.,26.));
#1165 = VERTEX_POINT('',#1166);
#1166 = CARTESIAN_POINT('',(-167.,-80.,5.));
#1167 = LINE('',#1168,#1169);
#1168 = CARTESIAN_POINT('',(-167.,-80.,28.));
#1169 = VECTOR('',#1170,1.);
#1170 = DIRECTION('',(-0.,-0.,-1.));
#1171 = ORIENTED_EDGE('',*,*,#1172,.F.);
#1172 = EDGE_CURVE('',#649,#1163,#1173,.T.);
#1173 = LINE('',#1174,#1175);
#1174 = CARTESIAN_POINT('',(-167.,-63.5,9.5));
#1175 = VECTOR('',#1176,1.);
#1176 = DIRECTION('',(0.,0.707106781187,-0.707106781187));
#1177 = ORIENTED_EDGE('',*,*,#656,.F.);
#1178 = ORIENTED_EDGE('',*,*,#664,.F.);
#1179 = ORIENTED_EDGE('',*,*,#906,.F.);
#1180 = ORIENTED_EDGE('',*,*,#880,.F.);
#1181 = ORIENTED_EDGE('',*,*,#1182,.T.);
#1182 = EDGE_CURVE('',#872,#1165,#1183,.T.);
#1183 = LINE('',#1184,#1185);
#1184 = CARTESIAN_POINT('',(-167.,-10.,5.));
#1185 = VECTOR('',#1186,1.);
#1186 = DIRECTION('',(0.,-1.,0.));
#1187 = PLANE('',#1188);
#1188 = AXIS2_PLACEMENT_3D('',#1189,#1190,#1191);
#1189 = CARTESIAN_POINT('',(-167.,-10.,28.));
#1190 = DIRECTION('',(-1.,0.,0.));
#1191 = DIRECTION('',(0.,-1.,0.));
#1192 = ADVANCED_FACE('',(#1193),#1211,.F.);
#1193 = FACE_BOUND('',#1194,.T.);
#1194 = EDGE_LOOP('',(#1195,#1196,#1197,#1205));
#1195 = ORIENTED_EDGE('',*,*,#1172,.F.);
#1196 = ORIENTED_EDGE('',*,*,#648,.T.);
#1197 = ORIENTED_EDGE('',*,*,#1198,.T.);
#1198 = EDGE_CURVE('',#641,#1199,#1201,.T.);
#1199 = VERTEX_POINT('',#1200);
#1200 = CARTESIAN_POINT('',(-137.,-80.,26.));
#1201 = LINE('',#1202,#1203);
#1202 = CARTESIAN_POINT('',(-137.,-81.,27.));
#1203 = VECTOR('',#1204,1.);
#1204 = DIRECTION('',(0.,0.707106781187,-0.707106781187));
#1205 = ORIENTED_EDGE('',*,*,#1206,.F.);
#1206 = EDGE_CURVE('',#1163,#1199,#1207,.T.);
#1207 = LINE('',#1208,#1209);
#1208 = CARTESIAN_POINT('',(-167.,-80.,26.));
#1209 = VECTOR('',#1210,1.);
#1210 = DIRECTION('',(1.,0.,0.));
#1211 = PLANE('',#1212);
#1212 = AXIS2_PLACEMENT_3D('',#1213,#1214,#1215);
#1213 = CARTESIAN_POINT('',(-167.,-81.,27.));
#1214 = DIRECTION('',(0.,-0.707106781187,-0.707106781187));
#1215 = DIRECTION('',(-1.,-0.,-0.));
#1216 = ADVANCED_FACE('',(#1217),#1244,.F.);
#1217 = FACE_BOUND('',#1218,.F.);
#1218 = EDGE_LOOP('',(#1219,#1227,#1235,#1241,#1242,#1243));
#1219 = ORIENTED_EDGE('',*,*,#1220,.T.);
#1220 = EDGE_CURVE('',#1199,#1221,#1223,.T.);
#1221 = VERTEX_POINT('',#1222);
#1222 = CARTESIAN_POINT('',(-137.,-80.,5.));
#1223 = LINE('',#1224,#1225);
#1224 = CARTESIAN_POINT('',(-137.,-80.,28.));
#1225 = VECTOR('',#1226,1.);
#1226 = DIRECTION('',(-0.,-0.,-1.));
#1227 = ORIENTED_EDGE('',*,*,#1228,.T.);
#1228 = EDGE_CURVE('',#1221,#1229,#1231,.T.);
#1229 = VERTEX_POINT('',#1230);
#1230 = CARTESIAN_POINT('',(-137.,-10.,5.));
#1231 = LINE('',#1232,#1233);
#1232 = CARTESIAN_POINT('',(-137.,-80.,5.));
#1233 = VECTOR('',#1234,1.);
#1234 = DIRECTION('',(0.,1.,0.));
#1235 = ORIENTED_EDGE('',*,*,#1236,.F.);
#1236 = EDGE_CURVE('',#625,#1229,#1237,.T.);
#1237 = LINE('',#1238,#1239);
#1238 = CARTESIAN_POINT('',(-137.,-10.,28.));
#1239 = VECTOR('',#1240,1.);
#1240 = DIRECTION('',(-0.,-0.,-1.));
#1241 = ORIENTED_EDGE('',*,*,#632,.F.);
#1242 = ORIENTED_EDGE('',*,*,#640,.T.);
#1243 = ORIENTED_EDGE('',*,*,#1198,.T.);
#1244 = PLANE('',#1245);
#1245 = AXIS2_PLACEMENT_3D('',#1246,#1247,#1248);
#1246 = CARTESIAN_POINT('',(-137.,-80.,28.));
#1247 = DIRECTION('',(1.,0.,0.));
#1248 = DIRECTION('',(0.,1.,0.));
#1249 = ADVANCED_FACE('',(#1250),#1268,.F.);
#1250 = FACE_BOUND('',#1251,.F.);
#1251 = EDGE_LOOP('',(#1252,#1253,#1261,#1267));
#1252 = ORIENTED_EDGE('',*,*,#1236,.T.);
#1253 = ORIENTED_EDGE('',*,*,#1254,.T.);
#1254 = EDGE_CURVE('',#1229,#1255,#1257,.T.);
#1255 = VERTEX_POINT('',#1256);
#1256 = CARTESIAN_POINT('',(-167.,-10.,5.));
#1257 = LINE('',#1258,#1259);
#1258 = CARTESIAN_POINT('',(-137.,-10.,5.));
#1259 = VECTOR('',#1260,1.);
#1260 = DIRECTION('',(-1.,0.,0.));
#1261 = ORIENTED_EDGE('',*,*,#1262,.F.);
#1262 = EDGE_CURVE('',#617,#1255,#1263,.T.);
#1263 = LINE('',#1264,#1265);
#1264 = CARTESIAN_POINT('',(-167.,-10.,28.));
#1265 = VECTOR('',#1266,1.);
#1266 = DIRECTION('',(-0.,-0.,-1.));
#1267 = ORIENTED_EDGE('',*,*,#624,.F.);
#1268 = PLANE('',#1269);
#1269 = AXIS2_PLACEMENT_3D('',#1270,#1271,#1272);
#1270 = CARTESIAN_POINT('',(-137.,-10.,28.));
#1271 = DIRECTION('',(0.,1.,0.));
#1272 = DIRECTION('',(-1.,0.,0.));
#1273 = ADVANCED_FACE('',(#1274),#1286,.F.);
#1274 = FACE_BOUND('',#1275,.F.);
#1275 = EDGE_LOOP('',(#1276,#1277,#1278,#1284,#1285));
#1276 = ORIENTED_EDGE('',*,*,#616,.F.);
#1277 = ORIENTED_EDGE('',*,*,#1262,.T.);
#1278 = ORIENTED_EDGE('',*,*,#1279,.T.);
#1279 = EDGE_CURVE('',#1255,#872,#1280,.T.);
#1280 = LINE('',#1281,#1282);
#1281 = CARTESIAN_POINT('',(-167.,-10.,5.));
#1282 = VECTOR('',#1283,1.);
#1283 = DIRECTION('',(0.,-1.,0.));
#1284 = ORIENTED_EDGE('',*,*,#871,.F.);
#1285 = ORIENTED_EDGE('',*,*,#855,.T.);
#1286 = PLANE('',#1287);
#1287 = AXIS2_PLACEMENT_3D('',#1288,#1289,#1290);
#1288 = CARTESIAN_POINT('',(-167.,-10.,28.));
#1289 = DIRECTION('',(-1.,0.,0.));
#1290 = DIRECTION('',(0.,-1.,0.));
#1291 = ADVANCED_FACE('',(#1292),#1310,.F.);
#1292 = FACE_BOUND('',#1293,.F.);
#1293 = EDGE_LOOP('',(#1294,#1295,#1303,#1309));
#1294 = ORIENTED_EDGE('',*,*,#763,.T.);
#1295 = ORIENTED_EDGE('',*,*,#1296,.T.);
#1296 = EDGE_CURVE('',#764,#1297,#1299,.T.);
#1297 = VERTEX_POINT('',#1298);
#1298 = CARTESIAN_POINT('',(-101.,-10.,23.5));
#1299 = LINE('',#1300,#1301);
#1300 = CARTESIAN_POINT('',(-101.,0.,23.5));
#1301 = VECTOR('',#1302,1.);
#1302 = DIRECTION('',(0.,-1.,0.));
#1303 = ORIENTED_EDGE('',*,*,#1304,.F.);
#1304 = EDGE_CURVE('',#586,#1297,#1305,.T.);
#1305 = LINE('',#1306,#1307);
#1306 = CARTESIAN_POINT('',(-101.,-10.,28.));
#1307 = VECTOR('',#1308,1.);
#1308 = DIRECTION('',(-0.,-0.,-1.));
#1309 = ORIENTED_EDGE('',*,*,#593,.F.);
#1310 = PLANE('',#1311);
#1311 = AXIS2_PLACEMENT_3D('',#1312,#1313,#1314);
#1312 = CARTESIAN_POINT('',(-101.,0.,28.));
#1313 = DIRECTION('',(-1.,0.,0.));
#1314 = DIRECTION('',(0.,-1.,0.));
#1315 = ADVANCED_FACE('',(#1316),#1357,.F.);
#1316 = FACE_BOUND('',#1317,.F.);
#1317 = EDGE_LOOP('',(#1318,#1319,#1327,#1335,#1341,#1342,#1343,#1351));
#1318 = ORIENTED_EDGE('',*,*,#553,.F.);
#1319 = ORIENTED_EDGE('',*,*,#1320,.T.);
#1320 = EDGE_CURVE('',#554,#1321,#1323,.T.);
#1321 = VERTEX_POINT('',#1322);
#1322 = CARTESIAN_POINT('',(-34.,-10.,18.));
#1323 = LINE('',#1324,#1325);
#1324 = CARTESIAN_POINT('',(-34.,-10.,28.));
#1325 = VECTOR('',#1326,1.);
#1326 = DIRECTION('',(-0.,-0.,-1.));
#1327 = ORIENTED_EDGE('',*,*,#1328,.T.);
#1328 = EDGE_CURVE('',#1321,#1329,#1331,.T.);
#1329 = VERTEX_POINT('',#1330);
#1330 = CARTESIAN_POINT('',(-136.,-10.,18.));
#1331 = LINE('',#1332,#1333);
#1332 = CARTESIAN_POINT('',(-34.,-10.,18.));
#1333 = VECTOR('',#1334,1.);
#1334 = DIRECTION('',(-1.,0.,0.));
#1335 = ORIENTED_EDGE('',*,*,#1336,.F.);
#1336 = EDGE_CURVE('',#578,#1329,#1337,.T.);
#1337 = LINE('',#1338,#1339);
#1338 = CARTESIAN_POINT('',(-136.,-10.,28.));
#1339 = VECTOR('',#1340,1.);
#1340 = DIRECTION('',(-0.,-0.,-1.));
#1341 = ORIENTED_EDGE('',*,*,#585,.F.);
#1342 = ORIENTED_EDGE('',*,*,#1304,.T.);
#1343 = ORIENTED_EDGE('',*,*,#1344,.T.);
#1344 = EDGE_CURVE('',#1297,#1345,#1347,.T.);
#1345 = VERTEX_POINT('',#1346);
#1346 = CARTESIAN_POINT('',(-69.,-10.,23.5));
#1347 = LINE('',#1348,#1349);
#1348 = CARTESIAN_POINT('',(-101.,-10.,23.5));
#1349 = VECTOR('',#1350,1.);
#1350 = DIRECTION('',(1.,0.,0.));
#1351 = ORIENTED_EDGE('',*,*,#1352,.F.);
#1352 = EDGE_CURVE('',#546,#1345,#1353,.T.);
#1353 = LINE('',#1354,#1355);
#1354 = CARTESIAN_POINT('',(-69.,-10.,28.));
#1355 = VECTOR('',#1356,1.);
#1356 = DIRECTION('',(-0.,-0.,-1.));
#1357 = PLANE('',#1358);
#1358 = AXIS2_PLACEMENT_3D('',#1359,#1360,#1361);
#1359 = CARTESIAN_POINT('',(-34.,-10.,28.));
#1360 = DIRECTION('',(0.,1.,0.));
#1361 = DIRECTION('',(-1.,0.,0.));
#1362 = ADVANCED_FACE('',(#1363),#1381,.F.);
#1363 = FACE_BOUND('',#1364,.F.);
#1364 = EDGE_LOOP('',(#1365,#1366,#1374,#1380));
#1365 = ORIENTED_EDGE('',*,*,#1336,.T.);
#1366 = ORIENTED_EDGE('',*,*,#1367,.T.);
#1367 = EDGE_CURVE('',#1329,#1368,#1370,.T.);
#1368 = VERTEX_POINT('',#1369);
#1369 = CARTESIAN_POINT('',(-136.,-170.,18.));
#1370 = LINE('',#1371,#1372);
#1371 = CARTESIAN_POINT('',(-136.,-10.,18.));
#1372 = VECTOR('',#1373,1.);
#1373 = DIRECTION('',(0.,-1.,0.));
#1374 = ORIENTED_EDGE('',*,*,#1375,.F.);
#1375 = EDGE_CURVE('',#570,#1368,#1376,.T.);
#1376 = LINE('',#1377,#1378);
#1377 = CARTESIAN_POINT('',(-136.,-170.,28.));
#1378 = VECTOR('',#1379,1.);
#1379 = DIRECTION('',(-0.,-0.,-1.));
#1380 = ORIENTED_EDGE('',*,*,#577,.F.);
#1381 = PLANE('',#1382);
#1382 = AXIS2_PLACEMENT_3D('',#1383,#1384,#1385);
#1383 = CARTESIAN_POINT('',(-136.,-10.,28.));
#1384 = DIRECTION('',(-1.,0.,0.));
#1385 = DIRECTION('',(0.,-1.,0.));
#1386 = ADVANCED_FACE('',(#1387),#1405,.F.);
#1387 = FACE_BOUND('',#1388,.F.);
#1388 = EDGE_LOOP('',(#1389,#1390,#1398,#1404));
#1389 = ORIENTED_EDGE('',*,*,#1375,.T.);
#1390 = ORIENTED_EDGE('',*,*,#1391,.T.);
#1391 = EDGE_CURVE('',#1368,#1392,#1394,.T.);
#1392 = VERTEX_POINT('',#1393);
#1393 = CARTESIAN_POINT('',(-34.,-170.,18.));
#1394 = LINE('',#1395,#1396);
#1395 = CARTESIAN_POINT('',(-136.,-170.,18.));
#1396 = VECTOR('',#1397,1.);
#1397 = DIRECTION('',(1.,0.,0.));
#1398 = ORIENTED_EDGE('',*,*,#1399,.F.);
#1399 = EDGE_CURVE('',#562,#1392,#1400,.T.);
#1400 = LINE('',#1401,#1402);
#1401 = CARTESIAN_POINT('',(-34.,-170.,28.));
#1402 = VECTOR('',#1403,1.);
#1403 = DIRECTION('',(-0.,-0.,-1.));
#1404 = ORIENTED_EDGE('',*,*,#569,.F.);
#1405 = PLANE('',#1406);
#1406 = AXIS2_PLACEMENT_3D('',#1407,#1408,#1409);
#1407 = CARTESIAN_POINT('',(-136.,-170.,28.));
#1408 = DIRECTION('',(0.,-1.,0.));
#1409 = DIRECTION('',(1.,0.,0.));
#1410 = ADVANCED_FACE('',(#1411),#1422,.F.);
#1411 = FACE_BOUND('',#1412,.F.);
#1412 = EDGE_LOOP('',(#1413,#1414,#1420,#1421));
#1413 = ORIENTED_EDGE('',*,*,#1399,.T.);
#1414 = ORIENTED_EDGE('',*,*,#1415,.T.);
#1415 = EDGE_CURVE('',#1392,#1321,#1416,.T.);
#1416 = LINE('',#1417,#1418);
#1417 = CARTESIAN_POINT('',(-34.,-170.,18.));
#1418 = VECTOR('',#1419,1.);
#1419 = DIRECTION('',(0.,1.,0.));
#1420 = ORIENTED_EDGE('',*,*,#1320,.F.);
#1421 = ORIENTED_EDGE('',*,*,#561,.F.);
#1422 = PLANE('',#1423);
#1423 = AXIS2_PLACEMENT_3D('',#1424,#1425,#1426);
#1424 = CARTESIAN_POINT('',(-34.,-170.,28.));
#1425 = DIRECTION('',(1.,0.,0.));
#1426 = DIRECTION('',(0.,1.,0.));
#1427 = ADVANCED_FACE('',(#1428),#1439,.F.);
#1428 = FACE_BOUND('',#1429,.F.);
#1429 = EDGE_LOOP('',(#1430,#1431,#1437,#1438));
#1430 = ORIENTED_EDGE('',*,*,#1352,.T.);
#1431 = ORIENTED_EDGE('',*,*,#1432,.T.);
#1432 = EDGE_CURVE('',#1345,#772,#1433,.T.);
#1433 = LINE('',#1434,#1435);
#1434 = CARTESIAN_POINT('',(-69.,-10.,23.5));
#1435 = VECTOR('',#1436,1.);
#1436 = DIRECTION('',(0.,1.,0.));
#1437 = ORIENTED_EDGE('',*,*,#779,.F.);
#1438 = ORIENTED_EDGE('',*,*,#545,.F.);
#1439 = PLANE('',#1440);
#1440 = AXIS2_PLACEMENT_3D('',#1441,#1442,#1443);
#1441 = CARTESIAN_POINT('',(-69.,-10.,28.));
#1442 = DIRECTION('',(1.,0.,0.));
#1443 = DIRECTION('',(0.,1.,0.));
#1444 = ADVANCED_FACE('',(#1445),#1464,.F.);
#1445 = FACE_BOUND('',#1446,.F.);
#1446 = EDGE_LOOP('',(#1447,#1448,#1456,#1462,#1463));
#1447 = ORIENTED_EDGE('',*,*,#1037,.F.);
#1448 = ORIENTED_EDGE('',*,*,#1449,.T.);
#1449 = EDGE_CURVE('',#1029,#1450,#1452,.T.);
#1450 = VERTEX_POINT('',#1451);
#1451 = CARTESIAN_POINT('',(-3.,-10.,5.));
#1452 = LINE('',#1453,#1454);
#1453 = CARTESIAN_POINT('',(-3.,-80.,5.));
#1454 = VECTOR('',#1455,1.);
#1455 = DIRECTION('',(0.,1.,0.));
#1456 = ORIENTED_EDGE('',*,*,#1457,.F.);
#1457 = EDGE_CURVE('',#515,#1450,#1458,.T.);
#1458 = LINE('',#1459,#1460);
#1459 = CARTESIAN_POINT('',(-3.,-10.,28.));
#1460 = VECTOR('',#1461,1.);
#1461 = DIRECTION('',(-0.,-0.,-1.));
#1462 = ORIENTED_EDGE('',*,*,#522,.F.);
#1463 = ORIENTED_EDGE('',*,*,#1005,.F.);
#1464 = PLANE('',#1465);
#1465 = AXIS2_PLACEMENT_3D('',#1466,#1467,#1468);
#1466 = CARTESIAN_POINT('',(-3.,-80.,28.));
#1467 = DIRECTION('',(1.,0.,0.));
#1468 = DIRECTION('',(0.,1.,0.));
#1469 = ADVANCED_FACE('',(#1470),#1488,.F.);
#1470 = FACE_BOUND('',#1471,.F.);
#1471 = EDGE_LOOP('',(#1472,#1473,#1481,#1487));
#1472 = ORIENTED_EDGE('',*,*,#1457,.T.);
#1473 = ORIENTED_EDGE('',*,*,#1474,.T.);
#1474 = EDGE_CURVE('',#1450,#1475,#1477,.T.);
#1475 = VERTEX_POINT('',#1476);
#1476 = CARTESIAN_POINT('',(-33.,-10.,5.));
#1477 = LINE('',#1478,#1479);
#1478 = CARTESIAN_POINT('',(-3.,-10.,5.));
#1479 = VECTOR('',#1480,1.);
#1480 = DIRECTION('',(-1.,0.,0.));
#1481 = ORIENTED_EDGE('',*,*,#1482,.F.);
#1482 = EDGE_CURVE('',#507,#1475,#1483,.T.);
#1483 = LINE('',#1484,#1485);
#1484 = CARTESIAN_POINT('',(-33.,-10.,28.));
#1485 = VECTOR('',#1486,1.);
#1486 = DIRECTION('',(-0.,-0.,-1.));
#1487 = ORIENTED_EDGE('',*,*,#514,.F.);
#1488 = PLANE('',#1489);
#1489 = AXIS2_PLACEMENT_3D('',#1490,#1491,#1492);
#1490 = CARTESIAN_POINT('',(-3.,-10.,28.));
#1491 = DIRECTION('',(0.,1.,0.));
#1492 = DIRECTION('',(-1.,0.,0.));
#1493 = ADVANCED_FACE('',(#1494),#1521,.F.);
#1494 = FACE_BOUND('',#1495,.F.);
#1495 = EDGE_LOOP('',(#1496,#1506,#1512,#1513,#1514,#1515));
#1496 = ORIENTED_EDGE('',*,*,#1497,.F.);
#1497 = EDGE_CURVE('',#1498,#1500,#1502,.T.);
#1498 = VERTEX_POINT('',#1499);
#1499 = CARTESIAN_POINT('',(-33.,-80.,26.));
#1500 = VERTEX_POINT('',#1501);
#1501 = CARTESIAN_POINT('',(-33.,-80.,5.));
#1502 = LINE('',#1503,#1504);
#1503 = CARTESIAN_POINT('',(-33.,-80.,28.));
#1504 = VECTOR('',#1505,1.);
#1505 = DIRECTION('',(-0.,-0.,-1.));
#1506 = ORIENTED_EDGE('',*,*,#1507,.F.);
#1507 = EDGE_CURVE('',#491,#1498,#1508,.T.);
#1508 = LINE('',#1509,#1510);
#1509 = CARTESIAN_POINT('',(-33.,-63.5,9.5));
#1510 = VECTOR('',#1511,1.);
#1511 = DIRECTION('',(0.,0.707106781187,-0.707106781187));
#1512 = ORIENTED_EDGE('',*,*,#498,.F.);
#1513 = ORIENTED_EDGE('',*,*,#506,.F.);
#1514 = ORIENTED_EDGE('',*,*,#1482,.T.);
#1515 = ORIENTED_EDGE('',*,*,#1516,.T.);
#1516 = EDGE_CURVE('',#1475,#1500,#1517,.T.);
#1517 = LINE('',#1518,#1519);
#1518 = CARTESIAN_POINT('',(-33.,-10.,5.));
#1519 = VECTOR('',#1520,1.);
#1520 = DIRECTION('',(0.,-1.,0.));
#1521 = PLANE('',#1522);
#1522 = AXIS2_PLACEMENT_3D('',#1523,#1524,#1525);
#1523 = CARTESIAN_POINT('',(-33.,-10.,28.));
#1524 = DIRECTION('',(-1.,0.,0.));
#1525 = DIRECTION('',(0.,-1.,0.));
#1526 = ADVANCED_FACE('',(#1527),#1545,.F.);
#1527 = FACE_BOUND('',#1528,.T.);
#1528 = EDGE_LOOP('',(#1529,#1530,#1531,#1539));
#1529 = ORIENTED_EDGE('',*,*,#1507,.F.);
#1530 = ORIENTED_EDGE('',*,*,#490,.T.);
#1531 = ORIENTED_EDGE('',*,*,#1532,.T.);
#1532 = EDGE_CURVE('',#483,#1533,#1535,.T.);
#1533 = VERTEX_POINT('',#1534);
#1534 = CARTESIAN_POINT('',(-3.,-80.,26.));
#1535 = LINE('',#1536,#1537);
#1536 = CARTESIAN_POINT('',(-3.,-81.,27.));
#1537 = VECTOR('',#1538,1.);
#1538 = DIRECTION('',(0.,0.707106781187,-0.707106781187));
#1539 = ORIENTED_EDGE('',*,*,#1540,.F.);
#1540 = EDGE_CURVE('',#1498,#1533,#1541,.T.);
#1541 = LINE('',#1542,#1543);
#1542 = CARTESIAN_POINT('',(-33.,-80.,26.));
#1543 = VECTOR('',#1544,1.);
#1544 = DIRECTION('',(1.,0.,0.));
#1545 = PLANE('',#1546);
#1546 = AXIS2_PLACEMENT_3D('',#1547,#1548,#1549);
#1547 = CARTESIAN_POINT('',(-33.,-81.,27.));
#1548 = DIRECTION('',(0.,-0.707106781187,-0.707106781187));
#1549 = DIRECTION('',(-1.,-0.,-0.));
#1550 = ADVANCED_FACE('',(#1551),#1572,.F.);
#1551 = FACE_BOUND('',#1552,.F.);
#1552 = EDGE_LOOP('',(#1553,#1561,#1567,#1568,#1569,#1570,#1571));
#1553 = ORIENTED_EDGE('',*,*,#1554,.T.);
#1554 = EDGE_CURVE('',#1533,#1555,#1557,.T.);
#1555 = VERTEX_POINT('',#1556);
#1556 = CARTESIAN_POINT('',(-3.,-80.,5.));
#1557 = LINE('',#1558,#1559);
#1558 = CARTESIAN_POINT('',(-3.,-80.,28.));
#1559 = VECTOR('',#1560,1.);
#1560 = DIRECTION('',(-0.,-0.,-1.));
#1561 = ORIENTED_EDGE('',*,*,#1562,.T.);
#1562 = EDGE_CURVE('',#1555,#1029,#1563,.T.);
#1563 = LINE('',#1564,#1565);
#1564 = CARTESIAN_POINT('',(-3.,-80.,5.));
#1565 = VECTOR('',#1566,1.);
#1566 = DIRECTION('',(0.,1.,0.));
#1567 = ORIENTED_EDGE('',*,*,#1028,.F.);
#1568 = ORIENTED_EDGE('',*,*,#1056,.T.);
#1569 = ORIENTED_EDGE('',*,*,#474,.F.);
#1570 = ORIENTED_EDGE('',*,*,#482,.T.);
#1571 = ORIENTED_EDGE('',*,*,#1532,.T.);
#1572 = PLANE('',#1573);
#1573 = AXIS2_PLACEMENT_3D('',#1574,#1575,#1576);
#1574 = CARTESIAN_POINT('',(-3.,-80.,28.));
#1575 = DIRECTION('',(1.,0.,0.));
#1576 = DIRECTION('',(0.,1.,0.));
#1577 = ADVANCED_FACE('',(#1578),#1606,.F.);
#1578 = FACE_BOUND('',#1579,.F.);
#1579 = EDGE_LOOP('',(#1580,#1590,#1596,#1597,#1598,#1599,#1600));
#1580 = ORIENTED_EDGE('',*,*,#1581,.F.);
#1581 = EDGE_CURVE('',#1582,#1584,#1586,.T.);
#1582 = VERTEX_POINT('',#1583);
#1583 = CARTESIAN_POINT('',(-3.,-100.,26.));
#1584 = VERTEX_POINT('',#1585);
#1585 = CARTESIAN_POINT('',(-3.,-100.,5.));
#1586 = LINE('',#1587,#1588);
#1587 = CARTESIAN_POINT('',(-3.,-100.,28.));
#1588 = VECTOR('',#1589,1.);
#1589 = DIRECTION('',(-0.,-0.,-1.));
#1590 = ORIENTED_EDGE('',*,*,#1591,.F.);
#1591 = EDGE_CURVE('',#436,#1582,#1592,.T.);
#1592 = LINE('',#1593,#1594);
#1593 = CARTESIAN_POINT('',(-3.,-116.5,9.5));
#1594 = VECTOR('',#1595,1.);
#1595 = DIRECTION('',(0.,-0.707106781187,-0.707106781187));
#1596 = ORIENTED_EDGE('',*,*,#443,.F.);
#1597 = ORIENTED_EDGE('',*,*,#451,.F.);
#1598 = ORIENTED_EDGE('',*,*,#981,.F.);
#1599 = ORIENTED_EDGE('',*,*,#955,.F.);
#1600 = ORIENTED_EDGE('',*,*,#1601,.T.);
#1601 = EDGE_CURVE('',#947,#1584,#1602,.T.);
#1602 = LINE('',#1603,#1604);
#1603 = CARTESIAN_POINT('',(-3.,-170.,5.));
#1604 = VECTOR('',#1605,1.);
#1605 = DIRECTION('',(0.,1.,0.));
#1606 = PLANE('',#1607);
#1607 = AXIS2_PLACEMENT_3D('',#1608,#1609,#1610);
#1608 = CARTESIAN_POINT('',(-3.,-170.,28.));
#1609 = DIRECTION('',(1.,0.,0.));
#1610 = DIRECTION('',(0.,1.,0.));
#1611 = ADVANCED_FACE('',(#1612),#1630,.F.);
#1612 = FACE_BOUND('',#1613,.T.);
#1613 = EDGE_LOOP('',(#1614,#1615,#1616,#1624));
#1614 = ORIENTED_EDGE('',*,*,#1591,.F.);
#1615 = ORIENTED_EDGE('',*,*,#435,.T.);
#1616 = ORIENTED_EDGE('',*,*,#1617,.T.);
#1617 = EDGE_CURVE('',#428,#1618,#1620,.T.);
#1618 = VERTEX_POINT('',#1619);
#1619 = CARTESIAN_POINT('',(-33.,-100.,26.));
#1620 = LINE('',#1621,#1622);
#1621 = CARTESIAN_POINT('',(-33.,-99.,27.));
#1622 = VECTOR('',#1623,1.);
#1623 = DIRECTION('',(-0.,-0.707106781187,-0.707106781187));
#1624 = ORIENTED_EDGE('',*,*,#1625,.F.);
#1625 = EDGE_CURVE('',#1582,#1618,#1626,.T.);
#1626 = LINE('',#1627,#1628);
#1627 = CARTESIAN_POINT('',(-3.,-100.,26.));
#1628 = VECTOR('',#1629,1.);
#1629 = DIRECTION('',(-1.,0.,0.));
#1630 = PLANE('',#1631);
#1631 = AXIS2_PLACEMENT_3D('',#1632,#1633,#1634);
#1632 = CARTESIAN_POINT('',(-3.,-99.,27.));
#1633 = DIRECTION('',(0.,0.707106781187,-0.707106781187));
#1634 = DIRECTION('',(1.,0.,0.));
#1635 = ADVANCED_FACE('',(#1636),#1663,.F.);
#1636 = FACE_BOUND('',#1637,.F.);
#1637 = EDGE_LOOP('',(#1638,#1646,#1654,#1660,#1661,#1662));
#1638 = ORIENTED_EDGE('',*,*,#1639,.T.);
#1639 = EDGE_CURVE('',#1618,#1640,#1642,.T.);
#1640 = VERTEX_POINT('',#1641);
#1641 = CARTESIAN_POINT('',(-33.,-100.,5.));
#1642 = LINE('',#1643,#1644);
#1643 = CARTESIAN_POINT('',(-33.,-100.,28.));
#1644 = VECTOR('',#1645,1.);
#1645 = DIRECTION('',(-0.,-0.,-1.));
#1646 = ORIENTED_EDGE('',*,*,#1647,.T.);
#1647 = EDGE_CURVE('',#1640,#1648,#1650,.T.);
#1648 = VERTEX_POINT('',#1649);
#1649 = CARTESIAN_POINT('',(-33.,-170.,5.));
#1650 = LINE('',#1651,#1652);
#1651 = CARTESIAN_POINT('',(-33.,-100.,5.));
#1652 = VECTOR('',#1653,1.);
#1653 = DIRECTION('',(0.,-1.,0.));
#1654 = ORIENTED_EDGE('',*,*,#1655,.F.);
#1655 = EDGE_CURVE('',#412,#1648,#1656,.T.);
#1656 = LINE('',#1657,#1658);
#1657 = CARTESIAN_POINT('',(-33.,-170.,28.));
#1658 = VECTOR('',#1659,1.);
#1659 = DIRECTION('',(-0.,-0.,-1.));
#1660 = ORIENTED_EDGE('',*,*,#419,.F.);
#1661 = ORIENTED_EDGE('',*,*,#427,.T.);
#1662 = ORIENTED_EDGE('',*,*,#1617,.T.);
#1663 = PLANE('',#1664);
#1664 = AXIS2_PLACEMENT_3D('',#1665,#1666,#1667);
#1665 = CARTESIAN_POINT('',(-33.,-100.,28.));
#1666 = DIRECTION('',(-1.,0.,0.));
#1667 = DIRECTION('',(0.,-1.,0.));
#1668 = ADVANCED_FACE('',(#1669),#1687,.F.);
#1669 = FACE_BOUND('',#1670,.F.);
#1670 = EDGE_LOOP('',(#1671,#1672,#1680,#1686));
#1671 = ORIENTED_EDGE('',*,*,#1655,.T.);
#1672 = ORIENTED_EDGE('',*,*,#1673,.T.);
#1673 = EDGE_CURVE('',#1648,#1674,#1676,.T.);
#1674 = VERTEX_POINT('',#1675);
#1675 = CARTESIAN_POINT('',(-3.,-170.,5.));
#1676 = LINE('',#1677,#1678);
#1677 = CARTESIAN_POINT('',(-33.,-170.,5.));
#1678 = VECTOR('',#1679,1.);
#1679 = DIRECTION('',(1.,0.,0.));
#1680 = ORIENTED_EDGE('',*,*,#1681,.F.);
#1681 = EDGE_CURVE('',#404,#1674,#1682,.T.);
#1682 = LINE('',#1683,#1684);
#1683 = CARTESIAN_POINT('',(-3.,-170.,28.));
#1684 = VECTOR('',#1685,1.);
#1685 = DIRECTION('',(-0.,-0.,-1.));
#1686 = ORIENTED_EDGE('',*,*,#411,.F.);
#1687 = PLANE('',#1688);
#1688 = AXIS2_PLACEMENT_3D('',#1689,#1690,#1691);
#1689 = CARTESIAN_POINT('',(-33.,-170.,28.));
#1690 = DIRECTION('',(0.,-1.,0.));
#1691 = DIRECTION('',(1.,0.,0.));
#1692 = ADVANCED_FACE('',(#1693),#1705,.F.);
#1693 = FACE_BOUND('',#1694,.F.);
#1694 = EDGE_LOOP('',(#1695,#1696,#1697,#1703,#1704));
#1695 = ORIENTED_EDGE('',*,*,#403,.F.);
#1696 = ORIENTED_EDGE('',*,*,#1681,.T.);
#1697 = ORIENTED_EDGE('',*,*,#1698,.T.);
#1698 = EDGE_CURVE('',#1674,#947,#1699,.T.);
#1699 = LINE('',#1700,#1701);
#1700 = CARTESIAN_POINT('',(-3.,-170.,5.));
#1701 = VECTOR('',#1702,1.);
#1702 = DIRECTION('',(0.,1.,0.));
#1703 = ORIENTED_EDGE('',*,*,#946,.F.);
#1704 = ORIENTED_EDGE('',*,*,#930,.T.);
#1705 = PLANE('',#1706);
#1706 = AXIS2_PLACEMENT_3D('',#1707,#1708,#1709);
#1707 = CARTESIAN_POINT('',(-3.,-170.,28.));
#1708 = DIRECTION('',(1.,0.,0.));
#1709 = DIRECTION('',(0.,1.,0.));
#1710 = ADVANCED_FACE('',(#1711),#1730,.F.);
#1711 = FACE_BOUND('',#1712,.F.);
#1712 = EDGE_LOOP('',(#1713,#1714,#1722,#1728,#1729));
#1713 = ORIENTED_EDGE('',*,*,#812,.F.);
#1714 = ORIENTED_EDGE('',*,*,#1715,.T.);
#1715 = EDGE_CURVE('',#804,#1716,#1718,.T.);
#1716 = VERTEX_POINT('',#1717);
#1717 = CARTESIAN_POINT('',(-167.,-170.,5.));
#1718 = LINE('',#1719,#1720);
#1719 = CARTESIAN_POINT('',(-167.,-100.,5.));
#1720 = VECTOR('',#1721,1.);
#1721 = DIRECTION('',(0.,-1.,0.));
#1722 = ORIENTED_EDGE('',*,*,#1723,.F.);
#1723 = EDGE_CURVE('',#371,#1716,#1724,.T.);
#1724 = LINE('',#1725,#1726);
#1725 = CARTESIAN_POINT('',(-167.,-170.,28.));
#1726 = VECTOR('',#1727,1.);
#1727 = DIRECTION('',(-0.,-0.,-1.));
#1728 = ORIENTED_EDGE('',*,*,#378,.F.);
#1729 = ORIENTED_EDGE('',*,*,#745,.F.);
#1730 = PLANE('',#1731);
#1731 = AXIS2_PLACEMENT_3D('',#1732,#1733,#1734);
#1732 = CARTESIAN_POINT('',(-167.,-100.,28.));
#1733 = DIRECTION('',(-1.,0.,0.));
#1734 = DIRECTION('',(0.,-1.,0.));
#1735 = ADVANCED_FACE('',(#1736),#1747,.F.);
#1736 = FACE_BOUND('',#1737,.F.);
#1737 = EDGE_LOOP('',(#1738,#1739,#1745,#1746));
#1738 = ORIENTED_EDGE('',*,*,#1723,.T.);
#1739 = ORIENTED_EDGE('',*,*,#1740,.T.);
#1740 = EDGE_CURVE('',#1716,#1090,#1741,.T.);
#1741 = LINE('',#1742,#1743);
#1742 = CARTESIAN_POINT('',(-167.,-170.,5.));
#1743 = VECTOR('',#1744,1.);
#1744 = DIRECTION('',(1.,0.,0.));
#1745 = ORIENTED_EDGE('',*,*,#1089,.F.);
#1746 = ORIENTED_EDGE('',*,*,#370,.F.);
#1747 = PLANE('',#1748);
#1748 = AXIS2_PLACEMENT_3D('',#1749,#1750,#1751);
#1749 = CARTESIAN_POINT('',(-167.,-170.,28.));
#1750 = DIRECTION('',(0.,-1.,0.));
#1751 = DIRECTION('',(1.,0.,0.));
#1752 = ADVANCED_FACE('',(#1753),#1759,.T.);
#1753 = FACE_BOUND('',#1754,.T.);
#1754 = EDGE_LOOP('',(#1755,#1756,#1757,#1758));
#1755 = ORIENTED_EDGE('',*,*,#1296,.T.);
#1756 = ORIENTED_EDGE('',*,*,#1344,.T.);
#1757 = ORIENTED_EDGE('',*,*,#1432,.T.);
#1758 = ORIENTED_EDGE('',*,*,#771,.T.);
#1759 = PLANE('',#1760);
#1760 = AXIS2_PLACEMENT_3D('',#1761,#1762,#1763);
#1761 = CARTESIAN_POINT('',(-85.,-5.,23.5));
#1762 = DIRECTION('',(0.,0.,1.));
#1763 = DIRECTION('',(1.,0.,0.));
#1764 = ADVANCED_FACE('',(#1765),#1776,.F.);
#1765 = FACE_BOUND('',#1766,.F.);
#1766 = EDGE_LOOP('',(#1767,#1768,#1774,#1775));
#1767 = ORIENTED_EDGE('',*,*,#1071,.T.);
#1768 = ORIENTED_EDGE('',*,*,#1769,.T.);
#1769 = EDGE_CURVE('',#1074,#1136,#1770,.T.);
#1770 = LINE('',#1771,#1772);
#1771 = CARTESIAN_POINT('',(-137.,-100.,5.));
#1772 = VECTOR('',#1773,1.);
#1773 = DIRECTION('',(-1.,0.,0.));
#1774 = ORIENTED_EDGE('',*,*,#1135,.F.);
#1775 = ORIENTED_EDGE('',*,*,#1121,.F.);
#1776 = PLANE('',#1777);
#1777 = AXIS2_PLACEMENT_3D('',#1778,#1779,#1780);
#1778 = CARTESIAN_POINT('',(-137.,-100.,28.));
#1779 = DIRECTION('',(0.,1.,0.));
#1780 = DIRECTION('',(-1.,0.,0.));
#1781 = ADVANCED_FACE('',(#1782),#1789,.T.);
#1782 = FACE_BOUND('',#1783,.T.);
#1783 = EDGE_LOOP('',(#1784,#1785,#1786,#1787,#1788));
#1784 = ORIENTED_EDGE('',*,*,#1143,.T.);
#1785 = ORIENTED_EDGE('',*,*,#1715,.T.);
#1786 = ORIENTED_EDGE('',*,*,#1740,.T.);
#1787 = ORIENTED_EDGE('',*,*,#1097,.T.);
#1788 = ORIENTED_EDGE('',*,*,#1769,.T.);
#1789 = PLANE('',#1790);
#1790 = AXIS2_PLACEMENT_3D('',#1791,#1792,#1793);
#1791 = CARTESIAN_POINT('',(-85.,-90.,5.));
#1792 = DIRECTION('',(0.,0.,1.));
#1793 = DIRECTION('',(1.,0.,0.));
#1794 = ADVANCED_FACE('',(#1795),#1806,.F.);
#1795 = FACE_BOUND('',#1796,.F.);
#1796 = EDGE_LOOP('',(#1797,#1798,#1804,#1805));
#1797 = ORIENTED_EDGE('',*,*,#1162,.T.);
#1798 = ORIENTED_EDGE('',*,*,#1799,.T.);
#1799 = EDGE_CURVE('',#1165,#1221,#1800,.T.);
#1800 = LINE('',#1801,#1802);
#1801 = CARTESIAN_POINT('',(-167.,-80.,5.));
#1802 = VECTOR('',#1803,1.);
#1803 = DIRECTION('',(1.,0.,0.));
#1804 = ORIENTED_EDGE('',*,*,#1220,.F.);
#1805 = ORIENTED_EDGE('',*,*,#1206,.F.);
#1806 = PLANE('',#1807);
#1807 = AXIS2_PLACEMENT_3D('',#1808,#1809,#1810);
#1808 = CARTESIAN_POINT('',(-167.,-80.,28.));
#1809 = DIRECTION('',(0.,-1.,0.));
#1810 = DIRECTION('',(1.,0.,0.));
#1811 = ADVANCED_FACE('',(#1812),#1819,.T.);
#1812 = FACE_BOUND('',#1813,.T.);
#1813 = EDGE_LOOP('',(#1814,#1815,#1816,#1817,#1818));
#1814 = ORIENTED_EDGE('',*,*,#1279,.T.);
#1815 = ORIENTED_EDGE('',*,*,#1182,.T.);
#1816 = ORIENTED_EDGE('',*,*,#1799,.T.);
#1817 = ORIENTED_EDGE('',*,*,#1228,.T.);
#1818 = ORIENTED_EDGE('',*,*,#1254,.T.);
#1819 = PLANE('',#1820);
#1820 = AXIS2_PLACEMENT_3D('',#1821,#1822,#1823);
#1821 = CARTESIAN_POINT('',(-85.,-90.,5.));
#1822 = DIRECTION('',(0.,0.,1.));
#1823 = DIRECTION('',(1.,0.,0.));
#1824 = ADVANCED_FACE('',(#1825),#1831,.T.);
#1825 = FACE_BOUND('',#1826,.T.);
#1826 = EDGE_LOOP('',(#1827,#1828,#1829,#1830));
#1827 = ORIENTED_EDGE('',*,*,#1367,.T.);
#1828 = ORIENTED_EDGE('',*,*,#1391,.T.);
#1829 = ORIENTED_EDGE('',*,*,#1415,.T.);
#1830 = ORIENTED_EDGE('',*,*,#1328,.T.);
#1831 = PLANE('',#1832);
#1832 = AXIS2_PLACEMENT_3D('',#1833,#1834,#1835);
#1833 = CARTESIAN_POINT('',(-85.,-90.,18.));
#1834 = DIRECTION('',(0.,0.,1.));
#1835 = DIRECTION('',(1.,0.,0.));
#1836 = ADVANCED_FACE('',(#1837),#1849,.T.);
#1837 = FACE_BOUND('',#1838,.T.);
#1838 = EDGE_LOOP('',(#1839,#1840,#1846,#1847,#1848));
#1839 = ORIENTED_EDGE('',*,*,#1516,.T.);
#1840 = ORIENTED_EDGE('',*,*,#1841,.T.);
#1841 = EDGE_CURVE('',#1500,#1555,#1842,.T.);
#1842 = LINE('',#1843,#1844);
#1843 = CARTESIAN_POINT('',(-33.,-80.,5.));
#1844 = VECTOR('',#1845,1.);
#1845 = DIRECTION('',(1.,0.,0.));
#1846 = ORIENTED_EDGE('',*,*,#1562,.T.);
#1847 = ORIENTED_EDGE('',*,*,#1449,.T.);
#1848 = ORIENTED_EDGE('',*,*,#1474,.T.);
#1849 = PLANE('',#1850);
#1850 = AXIS2_PLACEMENT_3D('',#1851,#1852,#1853);
#1851 = CARTESIAN_POINT('',(-85.,-90.,5.));
#1852 = DIRECTION('',(0.,0.,1.));
#1853 = DIRECTION('',(1.,0.,0.));
#1854 = ADVANCED_FACE('',(#1855),#1861,.F.);
#1855 = FACE_BOUND('',#1856,.F.);
#1856 = EDGE_LOOP('',(#1857,#1858,#1859,#1860));
#1857 = ORIENTED_EDGE('',*,*,#1497,.T.);
#1858 = ORIENTED_EDGE('',*,*,#1841,.T.);
#1859 = ORIENTED_EDGE('',*,*,#1554,.F.);
#1860 = ORIENTED_EDGE('',*,*,#1540,.F.);
#1861 = PLANE('',#1862);
#1862 = AXIS2_PLACEMENT_3D('',#1863,#1864,#1865);
#1863 = CARTESIAN_POINT('',(-33.,-80.,28.));
#1864 = DIRECTION('',(0.,-1.,0.));
#1865 = DIRECTION('',(1.,0.,0.));
#1866 = ADVANCED_FACE('',(#1867),#1878,.F.);
#1867 = FACE_BOUND('',#1868,.F.);
#1868 = EDGE_LOOP('',(#1869,#1870,#1876,#1877));
#1869 = ORIENTED_EDGE('',*,*,#1581,.T.);
#1870 = ORIENTED_EDGE('',*,*,#1871,.T.);
#1871 = EDGE_CURVE('',#1584,#1640,#1872,.T.);
#1872 = LINE('',#1873,#1874);
#1873 = CARTESIAN_POINT('',(-3.,-100.,5.));
#1874 = VECTOR('',#1875,1.);
#1875 = DIRECTION('',(-1.,0.,0.));
#1876 = ORIENTED_EDGE('',*,*,#1639,.F.);
#1877 = ORIENTED_EDGE('',*,*,#1625,.F.);
#1878 = PLANE('',#1879);
#1879 = AXIS2_PLACEMENT_3D('',#1880,#1881,#1882);
#1880 = CARTESIAN_POINT('',(-3.,-100.,28.));
#1881 = DIRECTION('',(0.,1.,0.));
#1882 = DIRECTION('',(-1.,0.,0.));
#1883 = ADVANCED_FACE('',(#1884),#1891,.T.);
#1884 = FACE_BOUND('',#1885,.T.);
#1885 = EDGE_LOOP('',(#1886,#1887,#1888,#1889,#1890));
#1886 = ORIENTED_EDGE('',*,*,#1647,.T.);
#1887 = ORIENTED_EDGE('',*,*,#1673,.T.);
#1888 = ORIENTED_EDGE('',*,*,#1698,.T.);
#1889 = ORIENTED_EDGE('',*,*,#1601,.T.);
#1890 = ORIENTED_EDGE('',*,*,#1871,.T.);
#1891 = PLANE('',#1892);
#1892 = AXIS2_PLACEMENT_3D('',#1893,#1894,#1895);
#1893 = CARTESIAN_POINT('',(-85.,-90.,5.));
#1894 = DIRECTION('',(0.,0.,1.));
#1895 = DIRECTION('',(1.,0.,0.));
#1896 = ( GEOMETRIC_REPRESENTATION_CONTEXT(3) 
GLOBAL_UNCERTAINTY_ASSIGNED_CONTEXT((#1900)) 
GLOBAL_UNIT_ASSIGNED_CONTEXT((#1897,#1898,#1899)) REPRESENTATION_CONTEXT
('Context #1','3D Context with UNIT and UNCERTAINTY') );
#1897 = ( LENGTH_UNIT() NAMED_UNIT(*) SI_UNIT(.MILLI.,.METRE.) );
#1898 = ( NAMED_UNIT(*) PLANE_ANGLE_UNIT() SI_UNIT($,.RADIAN.) );
#1899 = ( NAMED_UNIT(*) SI_UNIT($,.STERADIAN.) SOLID_ANGLE_UNIT() );
#1900 = UNCERTAINTY_MEASURE_WITH_UNIT(LENGTH_MEASURE(5.E-05),#1897,
  'distance_accuracy_value','confusion accuracy');
#1901 = PRODUCT_RELATED_PRODUCT_CATEGORY('part',$,(#7));
#1902 = MECHANICAL_DESIGN_GEOMETRIC_PRESENTATION_REPRESENTATION('',(
    #1903),#1896);
#1903 = STYLED_ITEM('color',(#1904),#15);
#1904 = PRESENTATION_STYLE_ASSIGNMENT((#1905,#1911));
#1905 = SURFACE_STYLE_USAGE(.BOTH.,#1906);
#1906 = SURFACE_SIDE_STYLE('',(#1907));
#1907 = SURFACE_STYLE_FILL_AREA(#1908);
#1908 = FILL_AREA_STYLE('',(#1909));
#1909 = FILL_AREA_STYLE_COLOUR('',#1910);
#1910 = COLOUR_RGB('',0.301960791261,0.301960791261,0.301960791261);
#1911 = CURVE_STYLE('',#1912,POSITIVE_LENGTH_MEASURE(0.1),#1913);
#1912 = DRAUGHTING_PRE_DEFINED_CURVE_FONT('continuous');
#1913 = COLOUR_RGB('',9.803921802644E-02,9.803921802644E-02,
  9.803921802644E-02);
ENDSEC;
END-ISO-10303-21;
